<svg width="304" height="43" viewBox="0 0 304 43" fill="none" xmlns="http://www.w3.org/2000/svg">
<path d="M20.3798 0.00529215C21.9724 -0.03139 23.5801 0.125891 25.1492 0.375631C25.2379 0.389199 25.2379 0.389199 25.3287 0.402766C25.7582 0.475125 26.256 0.590699 26.5561 0.916316C26.6171 1.0133 26.6171 1.0133 26.6171 1.1138C26.4574 1.10676 26.2972 1.09922 26.1376 1.09169C26.0937 1.09018 26.0494 1.08817 26.004 1.08616C25.7551 1.0741 25.5067 1.05852 25.2583 1.03742C24.82 1.00425 24.3822 1.00124 23.9428 1.00074C23.8984 1.00074 23.8546 1.00074 23.8092 1.00074C22.9117 1.00074 22.0287 1.06204 21.138 1.16405C21.0874 1.16957 21.0373 1.1756 20.9856 1.18113C17.216 1.6188 13.5904 3.22277 10.7537 5.63626C10.7256 5.66038 10.6974 5.68449 10.6682 5.70912C9.89481 6.36839 9.22166 7.0945 8.61426 7.89748C8.58713 7.93316 8.55947 7.96884 8.53181 8.00552C8.17802 8.46782 7.85971 8.93865 7.57949 9.44567C7.51374 9.56476 7.4459 9.68235 7.37806 9.80043C6.19249 11.8923 5.58717 14.3093 5.63988 16.6912C5.6404 16.7309 5.64092 16.7705 5.64196 16.8113C5.68267 18.8881 6.24362 21.0121 7.20534 22.8718C7.22674 22.9141 7.24813 22.9563 7.27057 22.9995C7.76421 23.9552 8.32204 24.8642 9.03172 25.6858C9.09016 25.7567 9.09016 25.7567 9.14965 25.8285C9.79462 26.6059 10.5283 27.3657 11.3277 27.9973C11.3549 28.0194 11.3825 28.0415 11.4107 28.0641C13.3028 29.5872 15.4251 30.8047 17.7461 31.6153C17.7947 31.6324 17.8432 31.6494 17.8933 31.667C19.2626 32.1429 20.6903 32.465 22.1295 32.6705C22.2114 32.6831 22.2114 32.6831 22.2954 32.6956C23.2728 32.8363 24.2543 32.8368 25.2406 32.8404C25.3053 32.8404 25.37 32.8409 25.4368 32.8414C26.6317 32.8469 27.8142 32.761 28.9914 32.5574C29.053 32.5469 29.1151 32.5363 29.1787 32.5253C32.2685 31.9781 35.259 30.751 37.6797 28.8013C37.7278 28.7641 37.7763 28.7269 37.8259 28.6887C38.2887 28.3249 38.7088 27.9199 39.1309 27.5139C39.1617 27.4838 39.193 27.4541 39.2249 27.4235C39.3136 27.338 39.4023 27.2521 39.4905 27.1662C39.5176 27.14 39.5447 27.1139 39.5729 27.0873C39.7133 26.9516 39.7133 26.9516 39.8192 26.7913C39.8537 26.7913 39.8881 26.7913 39.9236 26.7913C39.9236 26.7581 39.9236 26.725 39.9236 26.6908C39.7258 26.7044 39.5275 26.7179 39.3297 26.7315C39.2666 26.736 39.2029 26.7406 39.1377 26.7451C38.7964 26.7692 38.4562 26.7958 38.116 26.828C36.8547 26.9461 35.5935 26.9963 34.3276 27.038C34.1961 27.0421 34.0646 27.0471 33.9331 27.0516C32.5888 27.1008 31.2452 27.1024 29.9004 27.0938C29.7611 27.0928 29.6218 27.0928 29.483 27.0928C25.4618 27.0878 21.3258 26.729 17.3741 26.0094C17.3151 25.9989 17.2556 25.9878 17.1946 25.9768C16.535 25.8557 15.8853 25.7074 15.2383 25.5336C15.1777 25.518 15.1172 25.5019 15.0551 25.4853C14.706 25.3883 14.4007 25.2698 14.0934 25.0828C14.0934 25.0331 14.0934 24.9833 14.0934 24.9321C14.6032 24.7522 15.1214 24.72 15.6589 24.6808C15.697 24.6778 15.735 24.6748 15.7747 24.6718C17.3804 24.5517 19.0105 24.6311 20.6193 24.6512C20.7028 24.6522 20.7863 24.6532 20.8698 24.6542C21.6948 24.6642 22.5203 24.6753 23.3453 24.6934C30.7969 24.8818 30.7969 24.8818 38.2177 24.3291C38.283 24.3205 38.3487 24.3125 38.416 24.304C38.5935 24.2803 38.7709 24.2552 38.9478 24.2286C38.9984 24.2215 39.0495 24.2145 39.1017 24.207C39.1471 24.1999 39.193 24.1924 39.24 24.1849C39.2791 24.1788 39.3183 24.1723 39.3584 24.1663C39.4644 24.1346 39.4644 24.1346 39.5192 24.0241C39.5385 23.9763 39.5385 23.9763 39.5583 23.9271C38.7756 22.8507 36.9915 22.5211 35.7652 22.206C35.6968 22.1885 35.6285 22.1709 35.5601 22.1528C33.9993 21.7493 32.4746 21.5714 30.8679 21.4347C30.7171 21.4216 30.5663 21.4086 30.4155 21.3955C29.8629 21.3473 29.3097 21.3041 28.7566 21.2639C28.7112 21.2608 28.6663 21.2573 28.6193 21.2538C27.128 21.1473 25.6371 21.0955 24.1421 21.0674C24.0988 21.0664 24.056 21.0659 24.0117 21.0649C23.0974 21.0478 22.1832 21.0332 21.2684 21.0217C19.6299 21.0006 17.9935 20.9714 16.3571 20.8764C16.2511 20.8704 16.1452 20.8644 16.0387 20.8583C13.1364 20.694 13.1364 20.694 12.4757 20.0579C12.4559 19.9388 12.4559 19.9388 12.4757 19.8066C12.6751 19.6589 12.8368 19.6343 13.0847 19.6237C13.1192 19.6222 13.1541 19.6202 13.1896 19.6187C13.3065 19.6132 13.4239 19.6086 13.5408 19.6041C13.6269 19.6001 13.713 19.5966 13.7986 19.5926C13.9875 19.584 14.1764 19.576 14.3653 19.5679C14.6721 19.5554 14.9789 19.5418 15.2858 19.5277C15.7559 19.5066 16.2261 19.4865 16.6968 19.4659C17.5797 19.4277 18.4626 19.3891 19.345 19.3504C19.4071 19.3473 19.4071 19.3473 19.4697 19.3448C21.8821 19.2383 24.2934 19.1252 26.7053 19.0132C27.0033 18.9991 27.3012 18.985 27.5992 18.9715C29.5565 18.88 31.5144 18.7891 33.4718 18.6971C33.5657 18.6931 33.5657 18.6931 33.6617 18.6886C33.7243 18.6856 33.787 18.6825 33.8511 18.6795C33.9779 18.6735 34.1042 18.668 34.231 18.6619C34.2931 18.6589 34.3557 18.6559 34.4204 18.6529C35.4625 18.6042 36.5046 18.5554 37.5467 18.5072C38.1828 18.4775 38.8189 18.4479 39.455 18.4177C39.8871 18.3976 40.3186 18.3775 40.7501 18.3574C40.998 18.3459 41.2464 18.3343 41.4943 18.3228C41.7213 18.3122 41.9488 18.3011 42.1758 18.2911C42.2572 18.2871 42.3391 18.2831 42.421 18.2795C42.8933 18.2569 43.364 18.2439 43.8372 18.2489C43.9286 18.4152 43.9599 18.5408 43.974 18.7293C43.9781 18.777 43.9818 18.8247 43.986 18.874C44.0976 21.4528 43.5414 24.115 42.3761 26.4396C42.3527 26.4868 42.3292 26.5335 42.3047 26.5818C41.656 27.8606 40.8415 29.0958 39.8291 30.1394C39.7352 30.2374 39.6454 30.3364 39.5552 30.4374C39.3282 30.6887 39.085 30.9243 38.8408 31.16C38.763 31.2349 38.6858 31.3103 38.6086 31.3856C38.2814 31.7027 37.9391 31.9901 37.5754 32.2685C37.5211 32.3127 37.4668 32.357 37.4136 32.4017C36.9847 32.7564 36.5291 33.0685 36.0621 33.374C36.0266 33.3971 35.9911 33.4202 35.9551 33.4444C33.1023 35.2981 29.8477 36.3277 26.4606 36.791C26.3948 36.8 26.3291 36.8091 26.2612 36.8186C24.2454 37.0824 22.1101 37.0457 20.0943 36.791C20.0599 36.787 20.026 36.7824 19.9905 36.7779C17.0589 36.4106 14.2823 35.5468 11.6408 34.2785C11.5725 34.2458 11.5725 34.2458 11.5031 34.2127C9.86924 33.4232 8.31108 32.3806 6.94443 31.2133C6.87242 31.1535 6.80093 31.0942 6.72892 31.0344C6.03489 30.445 5.3487 29.8364 4.75278 29.153C4.70634 29.1023 4.66042 29.0515 4.61397 29.0008C3.65487 27.9466 2.81421 26.7803 2.14367 25.5351C2.1254 25.5019 2.10766 25.4692 2.08888 25.4351C1.96364 25.2024 1.8431 24.9678 1.72621 24.7311C1.70743 24.6939 1.68916 24.6567 1.66985 24.6185C-0.273932 20.68 -0.534844 16.2263 0.96122 12.1104C1.40999 10.9109 1.98608 9.75169 2.68845 8.67032C2.7135 8.63113 2.73855 8.59244 2.76464 8.55224C2.90501 8.34169 3.0532 8.17386 3.23949 7.99798C3.35743 7.85829 3.4691 7.71458 3.58181 7.57086C3.85838 7.22314 4.14746 6.89601 4.46056 6.57843C4.57118 6.46588 4.67764 6.35131 4.782 6.23322C5.13945 5.83575 5.53656 5.47294 5.95297 5.13376C6.0015 5.09306 6.05003 5.05286 6.10012 5.01065C7.15994 4.12827 8.32517 3.3705 9.55354 2.72178C9.59946 2.69766 9.64486 2.67354 9.69235 2.64842C11.6737 1.61076 13.7673 0.904256 15.972 0.460553C16.0179 0.451006 16.0638 0.441458 16.1108 0.431911C17.5082 0.145991 18.9542 0.0399643 20.3798 0.00529215Z" fill="#3B8C38"/>
<path d="M17.0784 37.6395C17.5161 38.0837 17.9069 38.775 17.9857 39.4697C17.9944 39.6563 17.9963 39.8428 17.9972 40.03C17.9981 40.0795 17.999 40.1285 18 40.1797C18.0036 40.9382 17.7391 41.6135 17.3065 42.1629C16.7715 42.748 16.1213 43.0133 15.4066 42.9995C14.7453 42.9637 14.0739 42.5603 13.608 42.0016C13.3564 41.6532 13.209 41.2849 13.1012 40.8457C13.091 40.8033 13.0804 40.7615 13.0698 40.7186C12.9118 39.9882 13.0339 39.2066 13.3173 38.5406C13.7338 37.7116 14.3177 37.2889 15.0826 37.0478C15.8005 36.8943 16.501 37.1155 17.0784 37.6395Z" fill="#C13512"/>
<path d="M32.9992 37.5793C33.5038 38.0957 33.9306 38.8282 33.9946 39.6379C34.0328 40.5975 33.8726 41.3317 33.3542 42.0829C32.9983 42.5431 32.4411 42.9427 31.9066 42.9912C30.9715 43.0116 30.9715 43.0116 30.6234 42.8171C30.552 42.7774 30.552 42.7774 30.4793 42.7377C29.7854 42.3227 29.3517 41.7759 29.1031 40.9028C28.9018 40.0992 29.0059 39.2675 29.3227 38.5245C29.6726 37.8212 30.1634 37.399 30.8075 37.14C30.8918 37.1058 30.8918 37.1058 30.9774 37.0711C31.6695 36.8853 32.4352 37.0667 32.9992 37.5793Z" fill="#C13512"/>
<path d="M210.802 11.4527C211.108 11.4527 211.418 11.4527 211.733 11.4527C212.215 11.461 212.215 11.461 212.707 11.4665C213.189 11.4665 213.189 11.4665 213.684 11.4637C216.08 11.4803 216.08 11.4803 216.736 12.1035C216.913 12.5972 216.913 12.5972 217.063 13.1956C217.118 13.4218 217.176 13.6451 217.233 13.8768C217.294 14.1195 217.352 14.3622 217.416 14.6131C217.476 14.8613 217.54 15.1095 217.603 15.366C217.803 16.163 218.002 16.96 218.199 17.757C218.398 18.5541 218.598 19.3511 218.797 20.1481C218.922 20.6445 219.046 21.1436 219.167 21.64C219.222 21.8634 219.28 22.0896 219.338 22.3185C219.387 22.517 219.436 22.7156 219.485 22.9197C219.615 23.4354 219.615 23.4354 219.916 23.9621C219.968 23.7525 220.023 23.5402 220.078 23.3251C222.442 14.0754 222.442 14.0754 223.385 11.8277C224.139 11.4692 224.691 11.5216 225.535 11.5271C225.848 11.5271 226.16 11.5271 226.478 11.5299C226.804 11.5299 227.131 11.5327 227.466 11.5354C227.961 11.5382 227.961 11.5382 228.461 11.5382C229.276 11.5437 230.088 11.5464 230.9 11.552C231.247 12.2138 231.256 12.6882 231.302 13.4245C231.319 13.7003 231.337 13.9761 231.354 14.2601C231.372 14.5607 231.389 14.8613 231.406 15.1702C231.426 15.4818 231.444 15.7935 231.464 16.1134C231.504 16.778 231.542 17.4399 231.58 18.1018C231.64 19.1001 231.701 20.0957 231.762 21.0912C231.979 24.7178 232.117 28.3277 232.057 31.9598C231.461 31.9681 230.869 31.9763 230.273 31.9874C229.816 31.9929 229.357 32.0011 228.9 32.0094C228.602 32.0122 228.602 32.0122 228.302 32.0149C228.099 32.0177 227.9 32.0204 227.692 32.0232C227.143 31.9598 227.143 31.9598 226.275 31.4082C226.16 30.8622 226.16 30.8622 226.148 30.181C226.145 29.9273 226.139 29.6735 226.131 29.4116C226.131 29.1385 226.128 28.8628 226.128 28.5815C226.122 28.3002 226.116 28.0189 226.111 27.7293C226.096 26.8302 226.085 25.9312 226.076 25.0322C226.067 24.4227 226.056 23.8132 226.047 23.2065C226.021 21.7117 226.001 20.217 225.986 18.7223C225.796 18.7223 225.605 18.7223 225.408 18.7223C225.373 18.9898 225.342 19.2573 225.307 19.5331C225.122 20.7631 224.772 21.9351 224.405 23.1237C224.301 23.4685 224.301 23.4685 224.194 23.8187C224.047 24.3013 223.902 24.7812 223.755 25.2611C223.526 26.0001 223.304 26.7392 223.081 27.4783C222.937 27.9472 222.795 28.4132 222.653 28.8821C222.584 29.1027 222.518 29.3261 222.448 29.555C221.971 31.1021 221.971 31.1021 221.65 31.4082C220.931 31.4358 220.219 31.4468 219.5 31.4441C219.3 31.4441 219.098 31.4468 218.893 31.4468C217.387 31.4441 217.387 31.4441 216.736 31.1324C216.505 30.4319 216.308 29.7453 216.129 29.031C216.074 28.8186 216.019 28.6035 215.962 28.3857C215.843 27.9306 215.727 27.4756 215.612 27.0233C215.438 26.3366 215.259 25.6499 215.08 24.9632C214.522 22.7983 213.984 20.639 213.557 18.4465C213.294 19.9991 213.184 21.5325 213.111 23.0989C213.094 23.4823 213.094 23.4823 213.074 23.8711C213.036 24.6764 212.999 25.4844 212.958 26.2897C212.932 26.8385 212.906 27.3873 212.88 27.9389C212.817 29.2792 212.753 30.6195 212.689 31.9598C211.828 31.9681 210.967 31.9736 210.105 31.9791C209.859 31.9791 209.614 31.9818 209.359 31.9846C209.125 31.9846 208.894 31.9874 208.651 31.9874C208.434 31.9901 208.218 31.9901 207.995 31.9929C207.486 31.9598 207.486 31.9598 207.197 31.684C207.186 31.2924 207.197 30.9008 207.217 30.5092C207.229 30.261 207.241 30.01 207.252 29.7535C207.275 29.3426 207.275 29.3426 207.298 28.9234C207.313 28.6394 207.327 28.3553 207.342 28.063C207.388 27.1557 207.437 26.2483 207.486 25.341C207.509 24.9108 207.509 24.9108 207.533 24.4723C207.622 22.7707 207.723 21.0719 207.83 19.3704C207.865 18.7912 207.9 18.2121 207.931 17.6329C207.981 16.778 208.033 15.9259 208.088 15.0737C208.102 14.8145 208.116 14.5552 208.131 14.2877C208.145 14.0478 208.163 13.8106 208.18 13.5624C208.192 13.3528 208.203 13.146 208.218 12.9281C208.553 11.5658 209.481 11.4499 210.802 11.4527Z" fill="#3B8C38"/>
<path d="M123.161 13.1914C124.511 14.5785 124.904 15.6872 124.875 17.5597C124.75 18.787 124.146 19.3826 123.207 20.1714C122.502 20.654 122.502 20.654 121.923 20.9298C122.155 21.0787 122.155 21.0787 122.389 21.2331C124.75 22.8382 124.75 22.8382 125.392 24.2392C125.606 26.0952 125.71 27.6451 124.525 29.2032C122.912 31.0179 121.157 31.597 118.744 31.961C117.275 32.0741 115.804 32.0686 114.33 32.052C113.659 32.0465 112.989 32.0465 112.315 32.0493C111.887 32.0493 111.456 32.0465 111.029 32.0438C110.728 32.0438 110.728 32.0438 110.422 32.0438C109.375 32.03 108.945 31.9803 108.048 31.4095C107.939 30.6373 107.939 30.6373 107.936 29.639C107.936 29.4569 107.933 29.2749 107.93 29.0874C107.927 28.4862 107.93 27.885 107.933 27.281C107.933 26.8646 107.933 26.4454 107.93 26.029C107.93 25.152 107.93 24.2778 107.936 23.4008C107.939 22.2784 107.936 21.1532 107.933 20.0307C107.93 19.1675 107.93 18.3043 107.933 17.4411C107.933 17.0275 107.933 16.6138 107.93 16.2001C107.927 15.621 107.93 15.0419 107.936 14.4627C107.936 14.1318 107.939 13.8036 107.939 13.4644C108.048 12.6563 108.048 12.6563 108.436 12.1406C111.5 10.1412 120.394 10.9465 123.161 13.1914Z" fill="#3B8C38"/>
<path d="M159.917 11.5011C160.229 11.4984 160.541 11.4956 160.865 11.4901C163.704 11.4873 166.21 11.7052 168.461 13.484C169.58 14.8491 169.953 15.8695 169.979 17.5848C169.988 17.8689 169.994 18.153 170.002 18.4453C169.806 20.1689 168.586 21.1893 167.305 22.309C167.114 22.309 166.924 22.309 166.727 22.309C166.851 22.4331 166.973 22.5599 167.1 22.6896C169.071 25.0006 170.774 28.9526 170.774 31.9613C169.878 31.9779 168.979 31.9861 168.083 31.9944C167.701 32.0027 167.701 32.0027 167.311 32.0082C167.065 32.011 166.82 32.0137 166.568 32.0137C166.343 32.0165 166.117 32.0192 165.886 32.022C165.282 31.9613 165.282 31.9613 164.415 31.4098C164.18 30.861 164.18 30.861 164.001 30.1963C163.932 29.9564 163.865 29.7165 163.793 29.4683C163.654 28.9608 163.519 28.4561 163.383 27.9487C162.943 26.4264 162.57 25.4832 161.235 24.5152C160.463 24.3773 160.463 24.3773 159.79 24.5152C159.278 25.0034 159.434 25.7232 159.411 26.385C159.396 26.7077 159.385 27.0304 159.373 27.364C159.362 27.7033 159.35 28.0425 159.339 28.3927C159.327 28.7347 159.313 29.0739 159.301 29.4241C159.269 30.2708 159.24 31.1147 159.211 31.9613C158.31 31.9696 157.405 31.9724 156.503 31.9779C156.246 31.9806 155.988 31.9834 155.722 31.9861C155.355 31.9861 155.355 31.9861 154.977 31.9889C154.639 31.9889 154.639 31.9889 154.289 31.9917C153.719 31.9613 153.719 31.9613 153.141 31.6855C153.121 29.2173 153.106 26.7518 153.098 24.2836C153.092 23.1391 153.086 21.9946 153.078 20.8473C153.066 19.7442 153.063 18.6383 153.06 17.5324C153.057 17.1105 153.054 16.6886 153.052 16.2666C153.043 15.6764 153.043 15.0863 153.043 14.4961C153.043 14.1596 153.04 13.8232 153.037 13.4785C153.141 12.6566 153.141 12.6566 153.52 12.1382C155.153 11.1012 158.038 11.5011 159.917 11.5011Z" fill="#3B8C38"/>
<path d="M271.043 11.4837C271.529 11.4755 271.529 11.4755 272.023 11.4672C274.781 11.4534 277.261 11.7844 279.461 13.4832C280.987 15.0937 281.039 16.4616 281.028 18.5768C280.854 19.9916 280.262 20.8107 279.172 21.7566C278.79 22.0351 278.403 22.3109 278.015 22.5839C278.128 22.7053 278.241 22.8266 278.357 22.9507C279.715 24.5282 280.302 26.1002 280.871 28.0472C280.961 28.334 281.048 28.618 281.14 28.9131C281.773 30.9925 281.773 30.9925 281.773 31.9605C280.877 31.9853 279.981 31.9991 279.082 32.0129C278.828 32.0184 278.573 32.0267 278.31 32.0322C278.068 32.035 277.822 32.0377 277.567 32.0405C277.342 32.046 277.116 32.0488 276.885 32.0543C276.108 31.9329 275.882 31.7316 275.414 31.1332C275.162 30.5457 275.162 30.5457 274.96 29.8756C274.888 29.6329 274.813 29.3902 274.738 29.1393C274.662 28.8883 274.587 28.6346 274.512 28.3754C274.362 27.8762 274.209 27.3743 274.058 26.8751C273.992 26.6545 273.928 26.4339 273.859 26.205C273.714 25.7306 273.555 25.259 273.39 24.7902C272.966 24.7378 272.538 24.6854 272.11 24.6358C271.87 24.6054 271.633 24.5778 271.387 24.5475C271.191 24.5365 270.994 24.5254 270.789 24.5144C270.277 25.0025 270.433 25.7223 270.41 26.387C270.399 26.7069 270.384 27.0295 270.373 27.3632C270.361 27.7024 270.35 28.0417 270.338 28.3919C270.326 28.7339 270.315 29.0731 270.3 29.4261C270.271 30.27 270.24 31.1166 270.211 31.9605C269.303 31.9688 268.393 31.9743 267.485 31.9771C267.225 31.9798 266.965 31.9826 266.699 31.9853C266.329 31.9853 266.329 31.9853 265.95 31.9881C265.722 31.9881 265.493 31.9908 265.256 31.9908C264.719 31.9605 264.719 31.9605 264.43 31.6847C264.401 31.0863 264.392 30.4878 264.389 29.8894C264.389 29.7019 264.386 29.5143 264.386 29.3213C264.383 28.7008 264.383 28.0775 264.383 27.4542C264.38 27.024 264.38 26.591 264.38 26.1608C264.378 25.2563 264.378 24.3517 264.378 23.4471C264.378 22.2861 264.375 21.1223 264.369 19.9613C264.366 19.0705 264.366 18.1797 264.366 17.2889C264.366 16.8615 264.363 16.434 264.36 16.0038C264.357 15.4081 264.36 14.8097 264.36 14.2112C264.36 13.8693 264.36 13.5273 264.36 13.177C264.43 12.38 264.43 12.38 265.008 11.8285C267.005 11.4782 269.02 11.492 271.043 11.4837Z" fill="#3B8C38"/>
<path d="M73.3425 11.4667C73.5853 11.4612 73.8281 11.4584 74.0796 11.4529C75.7995 11.4529 77.2709 11.7259 78.852 12.3795C78.9966 12.5174 78.9966 12.5174 79.1411 12.6553C79.1006 14.1004 78.8173 15.4434 78.2739 16.792C77.9299 16.701 77.583 16.61 77.2275 16.5162C74.1894 15.8874 71.5243 16.0419 68.7348 17.3436C68.4487 17.4346 68.1625 17.5256 67.8677 17.6193C67.541 18.1902 67.541 18.1902 67.2895 18.9983C67.2086 19.1996 67.1277 19.4009 67.0409 19.6077C66.2518 21.7092 66.4946 23.2315 67.3069 25.2888C68.7984 26.8966 70.4519 27.3462 72.6545 27.4951C73.2702 27.5144 73.883 27.5309 74.5161 27.5475C74.4207 26.3644 74.3253 25.1813 74.227 23.9623C73.805 23.9678 73.3801 23.9733 72.9436 23.9816C72.5042 23.9871 72.0648 23.9816 71.6255 23.9623C71.1052 23.4659 71.2873 22.7213 71.2844 22.0512C71.2786 21.7506 71.2757 21.4527 71.2699 21.1466C71.3364 20.3772 71.3364 20.3772 71.9145 19.8256C72.6921 19.7594 72.6921 19.7594 73.6691 19.7622C74.0189 19.7622 74.3658 19.7649 74.7271 19.7649C75.0913 19.7677 75.4584 19.7704 75.8342 19.7732C76.3863 19.776 76.3863 19.776 76.9471 19.776C79.6787 19.787 79.6787 19.787 80.0083 20.1014C80.0343 20.9177 80.043 21.7257 80.0372 22.542C80.0372 22.7875 80.0372 23.0302 80.0372 23.2839C80.0343 24.0671 80.0314 24.8503 80.0256 25.6363C80.0256 26.1658 80.0256 26.6953 80.0227 27.2248C80.0198 28.5293 80.0141 29.8309 80.0083 31.1326C77.5252 31.7035 75.178 32.1089 72.6198 32.0813C72.3337 32.0786 72.0475 32.0758 71.7527 32.073C67.8648 31.9903 64.7776 30.9423 61.9794 28.2728C60.3462 25.7577 59.6062 23.1708 60.2075 20.2255C61.0342 17.3601 62.413 15.2145 64.977 13.4826C67.6798 12.0403 70.2755 11.4556 73.3425 11.4667Z" fill="#3B8C38"/>
<path d="M246.06 11.526C246.525 11.526 246.525 11.526 247.002 11.5288C247.329 11.5315 247.655 11.5343 247.991 11.537C248.482 11.537 248.482 11.537 248.985 11.5398C249.797 11.5425 250.61 11.5481 251.422 11.5536C252.246 13.2689 252.832 15.0339 253.419 16.832C253.578 17.3146 253.578 17.3146 253.74 17.8055C254.075 18.8287 254.411 19.8546 254.746 20.8777C254.971 21.5644 255.197 22.2484 255.422 22.9351C256.021 24.7469 256.616 26.5616 257.203 28.3762C257.29 28.6382 257.376 28.903 257.466 29.1732C257.547 29.4214 257.628 29.6669 257.709 29.9178C257.778 30.133 257.851 30.3481 257.923 30.5714C258.07 31.134 258.07 31.134 258.07 31.9614C257.125 31.9834 256.18 32 255.235 32.0138C254.966 32.0193 254.697 32.0276 254.422 32.0331C254.165 32.0358 253.905 32.0386 253.639 32.0414C253.402 32.0469 253.165 32.0496 252.919 32.0552C252.136 31.9366 251.899 31.7297 251.422 31.134C250.965 29.9565 250.63 28.7568 250.266 27.5489C248.453 27.5489 246.641 27.5489 244.773 27.5489C244.392 29.005 244.01 30.4611 243.617 31.9614C241.709 31.9614 239.801 31.9614 237.836 31.9614C237.396 31.1175 237.752 30.5852 238.038 29.6972C238.093 29.5235 238.148 29.347 238.206 29.165C238.388 28.5831 238.576 28.0039 238.764 27.422C238.894 27.0194 239.021 26.614 239.151 26.2113C239.42 25.3619 239.692 24.5153 239.963 23.6659C240.313 22.5821 240.66 21.4982 241.007 20.4117C241.336 19.3747 241.666 18.3406 241.998 17.3036C242.062 17.1078 242.123 16.9092 242.189 16.7079C242.368 16.1481 242.548 15.5855 242.73 15.0257C242.831 14.7085 242.932 14.3886 243.039 14.0604C243.299 13.2965 243.554 12.5574 243.906 11.8294C244.661 11.4681 245.216 11.5205 246.06 11.526Z" fill="#3B8C38"/>
<path d="M89.1329 11.4588C89.3988 11.4588 89.6648 11.4588 89.9394 11.4588C90.2255 11.4643 90.5117 11.4671 90.8066 11.4726C91.1014 11.4726 91.3962 11.4753 91.6969 11.4753C92.6363 11.4808 93.5758 11.4891 94.5152 11.5001C95.1541 11.5057 95.79 11.5084 96.4259 11.5112C97.9869 11.5222 99.5507 11.536 101.112 11.5525C101.545 12.3799 101.427 13.1493 101.418 14.0704C101.415 14.4234 101.412 14.7764 101.409 15.1405C101.406 15.4135 101.404 15.6837 101.401 15.965C101.164 15.9733 100.93 15.9788 100.687 15.9871C99.6316 16.0174 98.5737 16.0505 97.5157 16.0864C97.1457 16.0974 96.7757 16.1085 96.3941 16.1195C96.0444 16.1305 95.6917 16.1415 95.3304 16.1526C95.0037 16.1636 94.68 16.1746 94.3447 16.1857C93.6162 16.1608 93.6162 16.1608 93.3069 16.5166C93.2838 16.9358 93.2809 17.355 93.2867 17.7742C93.2896 18.0031 93.2925 18.232 93.2954 18.4664C93.2983 18.6429 93.3012 18.8166 93.3069 18.9986C93.5237 19.0069 93.7405 19.0124 93.966 19.0207C94.943 19.051 95.923 19.0841 96.9 19.12C97.244 19.131 97.5851 19.142 97.9377 19.1531C98.2644 19.1641 98.5881 19.1751 98.9234 19.1862C99.2241 19.1972 99.5247 19.2082 99.8369 19.2193C100.534 19.2744 100.534 19.2744 100.823 19.5502C100.843 20.2479 100.849 20.9374 100.84 21.6351C100.837 21.8309 100.837 22.0267 100.837 22.2308C100.831 22.7162 100.828 23.2015 100.823 23.6869C100.603 23.6952 100.386 23.7007 100.164 23.709C99.1836 23.7393 98.2066 23.7724 97.2266 23.8083C96.8855 23.8193 96.5416 23.8303 96.1889 23.8414C95.8651 23.8524 95.5385 23.8634 95.2032 23.8745C94.7523 23.891 94.7523 23.891 94.2926 23.9075C93.6105 23.891 93.6105 23.891 93.3069 24.2385C93.2838 24.7487 93.2809 25.2616 93.2867 25.7718C93.2896 26.0504 93.2925 26.3317 93.2954 26.6185C93.2983 26.8336 93.3012 27.0487 93.3069 27.2721C93.6712 27.2831 93.6712 27.2831 94.0441 27.2941C94.9459 27.319 95.8478 27.3465 96.7468 27.3741C97.1399 27.3879 97.5301 27.3989 97.9204 27.41C98.4812 27.4265 99.0419 27.4431 99.5998 27.4596C99.938 27.4706 100.276 27.4817 100.623 27.4927C101.401 27.5479 101.401 27.5479 101.69 27.8236C101.71 28.5214 101.716 29.2108 101.707 29.9085C101.704 30.1044 101.704 30.3002 101.704 30.5042C101.698 30.9896 101.696 31.475 101.69 31.9604C99.6837 31.9686 97.6747 31.9714 95.6686 31.9769C94.9864 31.9769 94.3042 31.9797 93.6191 31.9824C92.6392 31.9852 91.6593 31.9852 90.6794 31.9879C90.373 31.9879 90.0666 31.9907 89.7486 31.9907C89.4653 31.9907 89.182 31.9907 88.8901 31.9907C88.6415 31.9935 88.39 31.9935 88.1327 31.9935C87.5257 31.9604 87.5257 31.9604 86.9476 31.6846C86.9273 29.1832 86.91 26.6791 86.9013 24.1778C86.8984 23.014 86.8898 21.853 86.8811 20.6892C86.8724 19.5695 86.8666 18.4471 86.8637 17.3274C86.8637 16.8999 86.8608 16.4697 86.8551 16.0423C86.8493 15.4438 86.8464 14.8454 86.8493 14.2469C86.8464 13.905 86.8435 13.563 86.8435 13.2127C86.9476 12.3799 86.9476 12.3799 87.3031 11.8559C87.9564 11.4671 88.3669 11.4533 89.1329 11.4588Z" fill="#3B8C38"/>
<path d="M178.742 11.4588C179.008 11.4588 179.274 11.4588 179.549 11.4588C179.835 11.4643 180.121 11.4671 180.416 11.4726C180.711 11.4726 181.006 11.4753 181.306 11.4753C182.246 11.4808 183.185 11.4891 184.125 11.5001C184.763 11.5057 185.399 11.5084 186.035 11.5112C187.596 11.5222 189.16 11.536 190.721 11.5525C191.412 12.8708 191.01 14.4924 191.01 15.965C188.244 16.0561 185.477 16.1471 182.627 16.2408C182.723 17.1509 182.818 18.061 182.916 18.9986C183.133 19.0069 183.35 19.0124 183.575 19.0207C184.552 19.051 185.532 19.0841 186.509 19.12C186.853 19.131 187.194 19.142 187.547 19.1531C187.874 19.1641 188.197 19.1751 188.533 19.1862C188.833 19.1972 189.134 19.2082 189.446 19.2193C190.143 19.2744 190.143 19.2744 190.432 19.5502C190.452 20.2479 190.458 20.9374 190.449 21.6351C190.446 21.8309 190.446 22.0267 190.446 22.2308C190.441 22.7162 190.438 23.2015 190.432 23.6869C190.212 23.6952 189.995 23.7007 189.773 23.709C188.793 23.7393 187.816 23.7724 186.836 23.8083C186.495 23.8193 186.151 23.8303 185.798 23.8414C185.475 23.8524 185.148 23.8634 184.813 23.8745C184.362 23.891 184.362 23.891 183.902 23.9075C183.22 23.891 183.22 23.891 182.916 24.2385C182.841 24.6963 182.783 25.1568 182.734 25.6174C182.694 25.9925 182.694 25.9925 182.65 26.3758C182.639 26.6819 182.639 26.6819 182.627 26.9963C183.153 27.501 183.995 27.3327 184.703 27.3493C185.067 27.3603 185.431 27.3714 185.804 27.3824C186.189 27.3907 186.576 27.4017 186.963 27.41C187.715 27.4293 188.469 27.4486 189.221 27.4706C189.556 27.4789 189.891 27.4872 190.238 27.4955C191.01 27.5479 191.01 27.5479 191.299 27.8236C191.319 28.5214 191.325 29.2108 191.316 29.9085C191.314 30.1044 191.314 30.3002 191.314 30.5042C191.308 30.9896 191.305 31.475 191.299 31.9604C189.293 31.9686 187.284 31.9714 185.278 31.9769C184.596 31.9769 183.914 31.9797 183.229 31.9824C182.249 31.9852 181.269 31.9852 180.289 31.9879C179.982 31.9879 179.676 31.9907 179.358 31.9907C179.075 31.9907 178.791 31.9907 178.499 31.9907C178.251 31.9935 177.999 31.9935 177.742 31.9935C177.135 31.9604 177.135 31.9604 176.557 31.6846C176.537 29.1832 176.519 26.6791 176.511 24.1778C176.508 23.014 176.499 21.853 176.49 20.6892C176.482 19.5695 176.476 18.4471 176.473 17.3274C176.473 16.8999 176.47 16.4697 176.464 16.0423C176.459 15.4438 176.456 14.8454 176.459 14.2469C176.456 13.905 176.453 13.563 176.453 13.2127C176.557 12.3799 176.557 12.3799 176.912 11.8559C177.566 11.4671 177.976 11.4533 178.742 11.4588Z" fill="#3B8C38"/>
<path d="M133.191 11.4847C133.425 11.4847 133.659 11.4847 133.899 11.4847C134.298 11.4847 134.298 11.4847 134.703 11.4819C134.992 11.4847 135.278 11.4874 135.573 11.4902C136.015 11.4902 136.015 11.4902 136.463 11.4902C137.084 11.4902 137.706 11.493 138.327 11.4957C139.281 11.5012 140.235 11.5012 141.192 11.5012C141.793 11.504 142.397 11.504 142.999 11.5068C143.429 11.5068 143.429 11.5068 143.869 11.5068C144.135 11.5095 144.398 11.5123 144.672 11.5123C145.022 11.515 145.022 11.515 145.381 11.515C145.915 11.5536 145.915 11.5536 146.204 11.8294C146.225 12.5271 146.23 13.2166 146.222 13.9143C146.222 14.1101 146.219 14.3059 146.219 14.5073C146.216 14.9954 146.21 15.4808 146.204 15.9661C145.97 15.9717 145.733 15.9799 145.493 15.9854C144.435 16.0185 143.377 16.0516 142.319 16.0847C141.949 16.0958 141.579 16.1068 141.201 16.1178C140.848 16.1316 140.498 16.1426 140.134 16.1537C139.81 16.1647 139.484 16.173 139.148 16.184C138.42 16.1619 138.42 16.1619 138.111 16.5177C138.09 16.9369 138.087 17.3561 138.093 17.7753C138.096 18.0042 138.099 18.2303 138.099 18.4647C138.105 18.6412 138.108 18.8177 138.111 18.9997C138.327 19.0052 138.544 19.0135 138.77 19.019C139.75 19.0521 140.727 19.0852 141.707 19.1183C142.048 19.1293 142.392 19.1404 142.744 19.1514C143.068 19.1652 143.392 19.1762 143.727 19.1873C144.031 19.1983 144.331 19.2066 144.641 19.2176C145.337 19.2755 145.337 19.2755 145.626 19.5513C145.646 20.249 145.652 20.9385 145.644 21.6362C145.644 21.832 145.641 22.0278 145.641 22.2291C145.638 22.7173 145.632 23.2026 145.626 23.688C145.409 23.6935 145.193 23.7018 144.967 23.7073C143.987 23.7404 143.01 23.7735 142.03 23.8066C141.689 23.8176 141.345 23.8287 140.993 23.8397C140.669 23.8535 140.345 23.8645 140.01 23.8755C139.556 23.8921 139.556 23.8921 139.096 23.9059C138.414 23.8893 138.414 23.8893 138.111 24.2396C138.09 24.7498 138.087 25.2627 138.093 25.7729C138.096 26.0515 138.099 26.33 138.099 26.6196C138.105 26.8347 138.108 27.0498 138.111 27.2732C138.489 27.2814 138.489 27.2814 138.877 27.2925C139.81 27.3201 140.744 27.3476 141.678 27.3752C142.079 27.3862 142.484 27.3973 142.889 27.4083C143.47 27.4248 144.051 27.4442 144.632 27.4607C144.982 27.4717 145.331 27.48 145.69 27.491C146.493 27.549 146.493 27.549 146.782 27.8247C146.803 28.5225 146.808 29.2119 146.8 29.9096C146.8 30.1054 146.797 30.3012 146.797 30.5026C146.794 30.9907 146.788 31.4761 146.782 31.9615C144.73 31.967 142.675 31.9725 140.623 31.9752C139.923 31.978 139.226 31.978 138.527 31.9808C137.524 31.9835 136.521 31.9863 135.521 31.9863C135.206 31.989 134.89 31.9918 134.567 31.9918C134.133 31.9918 134.133 31.9918 133.688 31.9918C133.303 31.9918 133.303 31.9918 132.913 31.9945C132.329 31.9615 132.329 31.9615 132.04 31.6857C132.011 31.079 132 30.4722 131.997 29.8655C131.997 29.5787 131.997 29.5787 131.994 29.2891C131.991 28.6576 131.991 28.0261 131.991 27.3945C131.991 26.956 131.991 26.5203 131.988 26.0818C131.988 25.1634 131.985 24.2478 131.985 23.3295C131.985 22.1519 131.982 20.9716 131.977 19.794C131.974 18.8922 131.974 17.9876 131.974 17.0831C131.974 16.6501 131.974 16.2143 131.971 15.7814C131.968 15.1746 131.968 14.5679 131.971 13.9612C131.968 13.4427 131.968 13.4427 131.968 12.9132C132.049 11.9949 132.182 11.606 133.191 11.4847Z" fill="#3B8C38"/>
<path d="M288.562 11.4589C289.048 11.4589 289.048 11.4589 289.545 11.4589C289.895 11.4644 290.245 11.4672 290.603 11.4727C290.961 11.4727 291.32 11.4755 291.69 11.4755C292.641 11.4782 293.589 11.4865 294.54 11.4948C295.511 11.5058 296.482 11.5085 297.454 11.5113C299.359 11.5223 301.261 11.5361 303.166 11.5527C303.608 12.3993 303.484 13.2818 303.472 14.2084C303.472 14.4015 303.469 14.5973 303.469 14.7986C303.466 15.2785 303.46 15.7611 303.455 16.241C302.897 16.2658 302.897 16.2658 302.327 16.2906C301.842 16.3154 301.356 16.3375 300.87 16.3623C300.625 16.3733 300.379 16.3844 300.128 16.3954C299.893 16.4064 299.659 16.4175 299.416 16.4285C299.093 16.445 299.093 16.445 298.76 16.4616C298.243 16.4671 298.243 16.4671 297.962 16.7925C297.928 17.2669 297.91 17.7412 297.902 18.2155C297.896 18.5189 297.89 18.825 297.884 19.1367C297.882 19.4676 297.876 19.7985 297.87 20.1377C297.864 20.4742 297.858 20.8106 297.853 21.1554C297.832 22.2364 297.815 23.3147 297.801 24.393C297.786 25.1239 297.775 25.8519 297.763 26.5827C297.731 28.3753 297.702 30.1679 297.673 31.9605C296.763 31.9688 295.855 31.9743 294.945 31.977C294.554 31.9825 294.554 31.9825 294.158 31.9853C293.788 31.9853 293.788 31.9853 293.41 31.9881C293.181 31.9881 292.953 31.9908 292.719 31.9908C292.181 31.9605 292.181 31.9605 291.892 31.6847C291.857 31.2104 291.84 30.736 291.831 30.2617C291.826 29.9583 291.82 29.655 291.814 29.3406C291.811 29.0096 291.805 28.6814 291.8 28.3395C291.794 28.003 291.788 27.6666 291.782 27.3218C291.762 26.2408 291.745 25.1625 291.73 24.0842C291.716 23.3534 291.704 22.6253 291.693 21.8945C291.661 20.1019 291.632 18.3093 291.603 16.5167C291.253 16.5002 290.906 16.4836 290.548 16.4671C290.091 16.4423 289.637 16.4202 289.181 16.3954C288.952 16.3844 288.724 16.3733 288.487 16.3623C286.756 16.2713 286.756 16.2713 286.111 15.9652C286.088 15.386 286.07 14.8041 286.056 14.225C286.047 13.9023 286.036 13.5769 286.027 13.246C286.111 12.38 286.111 12.38 286.449 11.9195C287.178 11.4148 287.669 11.4534 288.562 11.4589Z" fill="#3B8C38"/>
<path d="M115.345 23.1228C115.72 23.1642 115.72 23.1642 116.105 23.2055C116.356 23.2276 116.605 23.2524 116.862 23.2772C117.599 23.4124 118.111 23.5806 118.744 23.9639C119.475 25.0091 119.498 25.7703 119.322 26.9975C118.799 27.7339 118.49 27.8138 117.588 28.1007C117.044 28.1255 116.504 28.1365 115.96 28.1337C115.677 28.1337 115.394 28.1365 115.102 28.1365C114.408 28.1007 114.408 28.1007 114.119 27.8249C114.081 27.1354 114.064 26.4598 114.064 25.7731C114.061 25.5828 114.058 25.3897 114.052 25.1939C114.052 24.6892 114.084 24.1873 114.119 23.6882C114.697 23.1366 114.697 23.1366 115.345 23.1228Z" fill="#FBFDFD"/>
<path d="M273.103 15.4138C274.126 15.8688 274.493 16.1639 275.126 17.0685C275.349 18.9824 275.349 18.9824 274.603 19.9642C273.259 20.5682 271.964 20.5213 270.501 20.3779C269.943 19.8456 270.149 18.9135 270.14 18.2047C270.131 17.86 270.126 17.5125 270.117 17.1567C270.212 16.2411 270.212 16.2411 270.588 15.7116C271.423 15.2042 272.143 15.32 273.103 15.4138Z" fill="#FBFDFD"/>
<path d="M162.036 15.516C163.085 15.7973 163.531 16.2082 164.126 17.0687C164.34 17.9181 164.276 18.3731 164.126 19.2749C163.603 19.9644 163.603 19.9644 162.681 20.378C161.611 20.4773 160.571 20.4828 159.501 20.378C158.943 19.8458 159.148 18.9136 159.14 18.2049C159.131 17.8602 159.125 17.5127 159.117 17.1569C159.212 16.2413 159.212 16.2413 159.57 15.7035C160.415 15.2209 161.094 15.3781 162.036 15.516Z" fill="#FBFDFD"/>
<path d="M115.943 15.3103C116.894 15.3351 117.31 15.4206 118.183 15.8453C118.744 16.5182 118.744 16.5182 118.889 17.5C118.744 18.4487 118.744 18.4487 118.412 18.9148C117.637 19.4332 117.039 19.3643 116.105 19.3422C115.796 19.3395 115.484 19.334 115.163 19.3312C114.408 19.276 114.408 19.276 114.119 19.0003C114.082 18.5011 114.067 17.9992 114.064 17.5C114.061 17.227 114.056 16.954 114.053 16.6727C114.168 15.4454 114.787 15.3296 115.943 15.3103Z" fill="#FBFDFD"/>
<path d="M247.665 15.9653C247.761 15.9653 247.856 15.9653 247.954 15.9653C248.009 16.2191 248.067 16.4728 248.125 16.732C248.608 18.9245 248.608 18.9245 249.165 21.1004C249.4 22.0325 249.4 22.0325 249.4 23.1356C248.255 23.1356 247.11 23.1356 245.931 23.1356C245.546 22.4021 245.711 22.0822 245.911 21.2934C245.974 21.0369 246.038 20.7805 246.101 20.5185C246.171 20.2482 246.24 19.9807 246.309 19.7049C246.376 19.4402 246.44 19.1727 246.509 18.8969C247.012 16.9002 247.012 16.9002 247.665 15.9653Z" fill="#FBFDFD"/>
<path d="M44.8009 18.0011C45.1103 18.5642 44.987 19.4834 44.9066 20.0961C44.8723 20.1988 44.8368 20.3005 44.8009 20.4027C44.7702 20.5028 44.7406 20.6035 44.711 20.7036C44.5132 21.3705 44.309 22.0209 44.0075 22.651C43.9647 22.7424 43.9647 22.7424 43.9208 22.8354C43.5628 23.562 43.0772 24.1859 42.5521 24.8052C42.4759 24.8972 42.4008 24.9897 42.3262 25.0832C41.9925 25.5032 41.6371 25.8967 41.2574 26.2789C41.2082 26.3438 41.2082 26.3438 41.1585 26.4102C40.9014 26.6029 40.6354 26.5977 40.3175 26.6228C40.216 26.632 40.216 26.632 40.1123 26.6417C39.9288 26.658 39.7448 26.6734 39.5607 26.6882C39.4454 26.6974 39.3306 26.7071 39.2159 26.7168C37.9095 26.8287 36.6037 26.9013 35.2926 26.9355C35.0409 26.9421 34.7897 26.9508 34.5384 26.96C33.2511 27.006 31.9633 27.0035 30.6755 26.9953C30.5343 26.9943 30.3936 26.9943 30.2524 26.9938C26.1768 26.9892 21.9849 26.6243 17.9802 25.8926C17.8898 25.8762 17.8898 25.8762 17.7978 25.8594C17.1292 25.7362 16.4708 25.5855 15.8155 25.4087C15.7536 25.3924 15.6923 25.3765 15.6293 25.3596C15.2755 25.261 14.9661 25.1404 14.6546 24.9504C14.6546 24.8998 14.6546 24.8492 14.6546 24.7971C15.1713 24.6141 15.6965 24.5814 16.2413 24.5416C16.2799 24.5385 16.319 24.5354 16.3587 24.5324C17.986 24.4103 19.6383 24.491 21.2688 24.5114C21.3534 24.5125 21.438 24.5135 21.5227 24.5145C22.3588 24.5247 23.1955 24.536 24.0317 24.5544C31.5846 24.746 31.5846 24.746 39.1053 24.1839C39.2048 24.1711 39.2048 24.1711 39.3063 24.1578C39.4861 24.1343 39.666 24.1083 39.8452 24.0817C39.9225 24.071 39.9225 24.071 40.0013 24.0597C40.0478 24.0521 40.0938 24.0449 40.1414 24.0367C40.1811 24.0306 40.2208 24.0245 40.2615 24.0183C40.3688 23.9861 40.3688 23.9861 40.4249 23.8737C40.4439 23.8247 40.4439 23.8247 40.464 23.7751C39.6707 22.6806 37.8625 22.3454 36.6196 22.025C36.5503 22.0071 36.481 21.9887 36.4117 21.9709C34.8299 21.56 33.2845 21.3797 31.656 21.2407C31.5032 21.2274 31.3503 21.2141 31.198 21.2008C30.6374 21.1518 30.0773 21.1073 29.5162 21.0669C29.4702 21.0634 29.4247 21.0603 29.3776 21.0567C27.8655 20.9484 26.3545 20.8958 24.8393 20.8672C24.7737 20.8656 24.7737 20.8656 24.7071 20.8646C23.7805 20.8467 22.8539 20.8324 21.9273 20.8207C20.266 20.7992 18.6075 20.7696 16.9489 20.673C16.8415 20.6668 16.7342 20.6607 16.6268 20.6546C13.6846 20.4875 13.6846 20.4875 13.0151 19.8406C12.995 19.719 12.995 19.719 13.0151 19.5851C13.2171 19.4344 13.3811 19.4098 13.6323 19.3991C13.6672 19.3971 13.7026 19.3955 13.7386 19.394C13.8571 19.3884 13.976 19.3838 14.0945 19.3792C14.1818 19.3751 14.2691 19.371 14.3563 19.3674C14.5472 19.3588 14.7387 19.3501 14.9302 19.3424C15.2411 19.3296 15.5521 19.3158 15.8631 19.3015C16.3396 19.2801 16.8167 19.2591 17.2932 19.2387C18.1881 19.1998 19.0829 19.1605 19.9778 19.1211C20.0191 19.1191 20.0608 19.1171 20.1042 19.1155C22.5487 19.0072 24.9927 18.8922 27.4372 18.7778C27.7391 18.764 28.0411 18.7497 28.3431 18.7359C30.327 18.6429 32.3113 18.5499 34.2952 18.4569C34.3586 18.4538 34.4221 18.4513 34.4877 18.4477C34.5511 18.4451 34.6146 18.4421 34.6802 18.439C34.8082 18.4329 34.9362 18.4267 35.0647 18.4211C35.1282 18.418 35.1911 18.415 35.2567 18.4119C36.3128 18.3623 37.369 18.3128 38.4257 18.2637C39.0704 18.2336 39.7151 18.2034 40.3598 18.1728C40.7972 18.1523 41.2346 18.1319 41.672 18.1115C41.9238 18.0997 42.175 18.088 42.4262 18.0762C42.6568 18.065 42.8868 18.0542 43.1169 18.0435C43.1999 18.0399 43.2825 18.0358 43.3655 18.0323C43.8441 18.0093 44.3217 17.996 44.8009 18.0011Z" fill="#C13512"/>
</svg>
