<svg width="233" height="306" viewBox="0 0 233 306" fill="none" xmlns="http://www.w3.org/2000/svg">
<path d="M108.934 0.943959C117.279 0.744349 125.704 1.60021 133.926 2.95919C134.391 3.03302 134.391 3.03302 134.867 3.10685C137.117 3.5006 139.726 4.12951 141.298 5.90138C141.618 6.42911 141.618 6.42912 141.618 6.97599C140.781 6.93771 139.942 6.89669 139.105 6.85568C138.875 6.84748 138.643 6.83654 138.405 6.8256C137.101 6.75997 135.799 6.67521 134.497 6.56037C132.201 6.3799 129.906 6.36349 127.604 6.36076C127.372 6.36076 127.142 6.36076 126.904 6.36076C122.201 6.36076 117.574 6.69435 112.907 7.24943C112.642 7.27951 112.379 7.31232 112.108 7.3424C92.3552 9.72404 73.3568 18.4522 58.4927 31.5854C58.345 31.7166 58.1974 31.8479 58.0443 31.9818C53.9919 35.5694 50.4646 39.5205 47.2818 43.8901C47.1396 44.0842 46.9947 44.2783 46.8497 44.4779C44.9958 46.9936 43.3279 49.5557 41.8595 52.3147C41.515 52.9627 41.1595 53.6026 40.804 54.2451C34.5915 65.6283 31.4197 78.7807 31.6958 91.7416C31.6986 91.9576 31.7013 92.1737 31.7068 92.3951C31.92 103.696 34.8595 115.255 39.899 125.374C40.0111 125.604 40.1232 125.834 40.2407 126.069C42.8275 131.27 45.7505 136.216 49.4693 140.687C49.7755 141.072 49.7755 141.072 50.0872 141.464C53.4669 145.694 57.3115 149.828 61.5005 153.265C61.6427 153.385 61.7876 153.506 61.9353 153.629C71.8501 161.917 82.9708 168.542 95.1333 172.953C95.3876 173.046 95.6419 173.139 95.9044 173.234C103.079 175.824 110.561 177.576 118.102 178.695C118.531 178.763 118.531 178.763 118.972 178.831C124.093 179.597 129.236 179.6 134.404 179.619C134.743 179.619 135.083 179.622 135.433 179.624C141.694 179.655 147.89 179.187 154.059 178.08C154.382 178.022 154.707 177.965 155.041 177.905C171.231 174.927 186.902 168.249 199.586 157.64C199.838 157.438 200.092 157.235 200.352 157.028C202.777 155.048 204.979 152.844 207.191 150.635C207.352 150.471 207.516 150.309 207.683 150.142C208.148 149.678 208.613 149.21 209.075 148.742C209.217 148.6 209.359 148.458 209.507 148.313C210.242 147.575 210.242 147.575 210.797 146.703C210.978 146.703 211.158 146.703 211.344 146.703C211.344 146.522 211.344 146.342 211.344 146.156C210.308 146.23 209.269 146.303 208.233 146.377C207.902 146.402 207.568 146.426 207.226 146.451C205.438 146.582 203.655 146.727 201.872 146.902C195.263 147.545 188.654 147.818 182.021 148.045C181.332 148.067 180.643 148.094 179.954 148.119C172.91 148.387 165.869 148.395 158.822 148.349C158.092 148.343 157.362 148.343 156.635 148.343C135.564 148.316 113.891 146.363 93.1837 142.448C92.8747 142.39 92.563 142.33 92.2431 142.27C88.7868 141.611 85.3826 140.805 81.9919 139.858C81.6747 139.774 81.3576 139.686 81.0322 139.596C79.2029 139.068 77.6033 138.423 75.9927 137.406C75.9927 137.135 75.9927 136.864 75.9927 136.585C78.6642 135.606 81.3794 135.431 84.1958 135.218C84.3954 135.202 84.5951 135.185 84.8029 135.169C93.2165 134.515 101.759 134.947 110.189 135.057C110.626 135.062 111.064 135.068 111.501 135.073C115.824 135.128 120.15 135.188 124.473 135.287C163.52 136.312 163.52 136.312 202.406 133.304C202.747 133.258 203.092 133.214 203.445 133.167C204.374 133.039 205.304 132.902 206.231 132.757C206.496 132.719 206.764 132.681 207.038 132.64C207.276 132.601 207.516 132.56 207.762 132.519C207.967 132.487 208.172 132.451 208.383 132.418C208.938 132.246 208.938 132.246 209.225 131.644C209.326 131.385 209.326 131.385 209.43 131.117C205.329 125.26 195.98 123.466 189.554 121.751C189.196 121.656 188.838 121.56 188.479 121.462C180.301 119.266 172.311 118.298 163.892 117.554C163.102 117.483 162.311 117.412 161.521 117.341C158.626 117.078 155.727 116.843 152.829 116.624C152.591 116.608 152.356 116.589 152.109 116.57C144.295 115.99 136.483 115.708 128.649 115.555C128.422 115.55 128.197 115.547 127.965 115.542C123.174 115.449 118.384 115.369 113.59 115.306C105.004 115.192 96.4294 115.033 87.8544 114.516C87.2993 114.483 86.7443 114.451 86.1865 114.418C70.9779 113.524 70.9779 113.524 67.5161 110.062C67.4122 109.414 67.4122 109.414 67.5161 108.695C68.5607 107.891 69.4083 107.757 70.7072 107.699C70.8876 107.691 71.0708 107.68 71.2568 107.672C71.8693 107.642 72.4845 107.617 73.097 107.593C73.5482 107.571 73.9993 107.552 74.4478 107.53C75.4376 107.483 76.4275 107.44 77.4173 107.396C79.0251 107.328 80.6329 107.254 82.2407 107.177C84.7044 107.062 87.1681 106.953 89.6345 106.841C94.2611 106.633 98.8876 106.422 103.511 106.212C103.837 106.196 103.837 106.196 104.165 106.182C116.806 105.602 129.442 104.987 142.08 104.377C143.641 104.301 145.202 104.224 146.764 104.15C157.02 103.653 167.28 103.158 177.536 102.657C178.029 102.635 178.029 102.635 178.532 102.611C178.86 102.594 179.188 102.578 179.524 102.562C180.189 102.529 180.851 102.499 181.515 102.466C181.84 102.449 182.168 102.433 182.508 102.417C187.968 102.151 193.429 101.886 198.889 101.624C202.222 101.462 205.556 101.301 208.889 101.137C211.153 101.028 213.414 100.918 215.676 100.809C216.974 100.746 218.276 100.683 219.575 100.62C220.764 100.563 221.956 100.503 223.146 100.448C223.572 100.426 224.002 100.404 224.431 100.385C226.906 100.262 229.372 100.191 231.852 100.218C232.331 101.123 232.495 101.807 232.568 102.832C232.59 103.092 232.61 103.352 232.631 103.62C233.217 117.653 230.302 132.139 224.196 144.788C224.073 145.046 223.95 145.3 223.821 145.562C220.422 152.521 216.154 159.242 210.849 164.922C210.357 165.455 209.887 165.994 209.414 166.543C208.224 167.91 206.95 169.193 205.67 170.475C205.263 170.883 204.858 171.293 204.454 171.703C202.739 173.428 200.945 174.992 199.04 176.507C198.755 176.748 198.471 176.989 198.192 177.232C195.944 179.162 193.557 180.86 191.11 182.523C190.924 182.649 190.738 182.774 190.549 182.906C175.601 192.993 158.546 198.596 140.797 201.117C140.453 201.166 140.108 201.215 139.753 201.267C129.19 202.703 118.001 202.503 107.438 201.117C107.258 201.095 107.08 201.07 106.894 201.046C91.5322 199.047 76.9825 194.346 63.1411 187.445C62.7829 187.267 62.7829 187.267 62.4193 187.087C53.8579 182.791 45.6931 177.117 38.5318 170.765C38.1544 170.44 37.7798 170.117 37.4025 169.792C33.7657 166.584 30.17 163.273 27.0474 159.554C26.804 159.278 26.5634 159.002 26.32 158.726C21.2943 152.989 16.8892 146.642 13.3755 139.867C13.2798 139.686 13.1868 139.508 13.0884 139.322C12.4322 138.056 11.8005 136.78 11.188 135.492C11.0896 135.289 10.9939 135.087 10.8927 134.879C0.707161 113.447 -0.660031 89.2123 7.17942 66.815C9.53098 60.2881 12.5497 53.9799 16.2302 48.0955C16.3615 47.8822 16.4927 47.6717 16.6294 47.4529C17.365 46.3072 18.1415 45.394 19.1177 44.4369C19.7357 43.6768 20.3208 42.8947 20.9115 42.1127C22.3607 40.2205 23.8755 38.4404 25.5161 36.7123C26.0958 36.0998 26.6536 35.4764 27.2005 34.8338C29.0736 32.6709 31.1544 30.6967 33.3365 28.851C33.5907 28.6295 33.845 28.4108 34.1075 28.1811C39.6611 23.3795 45.7669 19.2561 52.2036 15.726C52.4443 15.5947 52.6822 15.4635 52.931 15.3268C63.3134 9.68029 74.2837 5.83576 85.8365 3.4213C86.0771 3.36935 86.3177 3.3174 86.5638 3.26544C93.8865 1.70958 101.463 1.13263 108.934 0.943959Z" fill="white"/>
<path d="M231.851 100.219C233.451 103.232 232.814 108.151 232.398 111.43C232.221 111.979 232.037 112.523 231.851 113.07C231.693 113.606 231.54 114.145 231.387 114.681C230.364 118.249 229.309 121.73 227.75 125.102C227.528 125.591 227.528 125.591 227.301 126.089C225.45 129.977 222.94 133.316 220.225 136.63C219.831 137.122 219.443 137.617 219.057 138.117C217.332 140.365 215.494 142.47 213.531 144.516C213.277 144.863 213.277 144.863 213.02 145.218C211.691 146.249 210.316 146.222 208.672 146.356C208.147 146.405 208.147 146.405 207.611 146.457C206.662 146.544 205.711 146.627 204.759 146.706C204.163 146.755 203.57 146.807 202.976 146.859C196.223 147.458 189.471 147.846 182.693 148.029C181.391 148.065 180.093 148.111 178.794 148.161C172.138 148.407 165.48 148.393 158.822 148.349C158.092 148.344 157.364 148.344 156.634 148.341C135.563 148.316 113.891 146.364 93.1859 142.448C92.7183 142.361 92.7183 142.361 92.2425 142.271C88.7863 141.612 85.382 140.805 81.9941 139.859C81.6741 139.771 81.357 139.687 81.0316 139.596C79.2023 139.069 77.6027 138.423 75.9921 137.406C75.9921 137.136 75.9921 136.865 75.9921 136.586C78.6636 135.607 81.3788 135.432 84.1952 135.219C84.3948 135.202 84.5972 135.186 84.8023 135.169C93.2159 134.516 101.758 134.948 110.188 135.057C110.626 135.063 111.063 135.068 111.501 135.074C115.824 135.128 120.15 135.189 124.473 135.287C163.522 136.312 163.522 136.312 202.405 133.305C202.919 133.236 202.919 133.236 203.444 133.165C204.374 133.039 205.303 132.9 206.23 132.758C206.63 132.7 206.63 132.7 207.037 132.64C207.278 132.599 207.516 132.561 207.762 132.517C207.967 132.484 208.172 132.452 208.382 132.419C208.937 132.246 208.937 132.246 209.227 131.645C209.326 131.382 209.326 131.382 209.43 131.117C205.328 125.26 195.979 123.466 189.553 121.752C189.195 121.656 188.837 121.558 188.479 121.462C180.3 119.264 172.31 118.298 163.891 117.555C163.101 117.484 162.311 117.412 161.523 117.341C158.625 117.079 155.729 116.841 152.828 116.625C152.59 116.606 152.355 116.589 152.112 116.57C144.294 115.991 136.482 115.709 128.648 115.556C128.309 115.548 128.309 115.548 127.964 115.542C123.174 115.446 118.383 115.37 113.593 115.307C105.004 115.192 96.4288 115.034 87.8538 114.517C87.2988 114.484 86.7437 114.451 86.1886 114.418C70.9773 113.524 70.9773 113.524 67.5156 110.062C67.4116 109.412 67.4116 109.412 67.5156 108.695C68.5601 107.889 69.4077 107.757 70.7066 107.7C70.887 107.689 71.0702 107.681 71.2562 107.673C71.8687 107.643 72.4839 107.618 73.0964 107.593C73.5476 107.571 73.9988 107.55 74.4499 107.53C75.437 107.484 76.4269 107.437 77.4167 107.396C79.0245 107.328 80.6323 107.254 82.2402 107.178C84.7038 107.063 87.1702 106.951 89.6339 106.841C94.2605 106.634 98.887 106.423 103.514 106.212C103.727 106.202 103.943 106.191 104.167 106.182C116.805 105.603 129.441 104.987 142.079 104.375C143.641 104.301 145.202 104.225 146.763 104.151C157.02 103.653 167.279 103.155 177.536 102.658C177.864 102.641 178.192 102.628 178.531 102.609C178.859 102.595 179.187 102.578 179.526 102.562C180.188 102.529 180.85 102.496 181.514 102.466C181.843 102.45 182.168 102.434 182.507 102.417C187.967 102.152 193.428 101.887 198.891 101.624C202.225 101.463 205.558 101.302 208.891 101.137C211.152 101.028 213.414 100.919 215.675 100.809C216.976 100.746 218.275 100.684 219.574 100.621C220.766 100.561 221.956 100.503 223.145 100.446C223.575 100.427 224.001 100.405 224.43 100.386C226.905 100.262 229.374 100.191 231.851 100.219Z" fill="#000100"/>
<path d="M91.389 205.425C93.9866 207.631 96.3054 211.066 96.7729 214.517C96.8249 215.444 96.8358 216.371 96.8413 217.3C96.8468 217.546 96.8522 217.79 96.8577 218.044C96.8796 221.812 95.3101 225.167 92.7425 227.896C89.5679 230.803 85.7097 232.121 81.4687 232.052C77.5448 231.874 73.5608 229.87 70.7964 227.095C69.3034 225.364 68.4284 223.535 67.7886 221.353C67.7284 221.142 67.6655 220.934 67.6026 220.721C66.6647 217.092 67.3894 213.21 69.071 209.901C71.5429 205.783 75.0073 203.683 79.5464 202.485C83.8065 201.722 87.9628 202.822 91.389 205.425Z" fill="#000100"/>
<path d="M175.14 204.938C178.137 207.5 180.672 211.134 181.052 215.151C181.279 219.911 180.327 223.553 177.248 227.28C175.134 229.564 171.826 231.546 168.651 231.787C163.098 231.888 163.098 231.888 161.031 230.923C160.607 230.726 160.607 230.726 160.175 230.529C156.054 228.47 153.478 225.757 152.002 221.426C150.807 217.439 151.425 213.313 153.306 209.627C155.384 206.138 158.299 204.044 162.124 202.759C162.625 202.589 162.625 202.589 163.133 202.417C167.243 201.495 171.79 202.395 175.14 204.938Z" fill="#000100"/>
<path d="M143.387 252.151C143.677 252.151 143.969 252.151 144.267 252.151C144.724 252.159 144.724 252.159 145.189 252.164C145.646 252.164 145.646 252.164 146.113 252.162C148.38 252.178 148.38 252.178 149.001 252.796C149.167 253.285 149.167 253.285 149.31 253.879C149.362 254.103 149.416 254.324 149.471 254.554C149.528 254.795 149.583 255.035 149.643 255.284C149.701 255.53 149.761 255.776 149.821 256.031C150.01 256.821 150.198 257.611 150.384 258.401C150.573 259.192 150.762 259.982 150.95 260.772C151.068 261.264 151.185 261.759 151.3 262.251C151.352 262.473 151.407 262.697 151.462 262.924C151.508 263.121 151.555 263.318 151.601 263.52C151.724 264.031 151.724 264.031 152.008 264.554C152.058 264.346 152.11 264.135 152.162 263.922C154.398 254.751 154.398 254.751 155.29 252.522C156.003 252.167 156.526 252.219 157.324 252.224C157.619 252.224 157.915 252.224 158.216 252.227C158.525 252.227 158.833 252.23 159.151 252.233C159.618 252.235 159.618 252.235 160.091 252.235C160.862 252.241 161.631 252.244 162.399 252.249C162.727 252.905 162.735 253.376 162.779 254.106C162.796 254.379 162.812 254.653 162.828 254.934C162.845 255.232 162.861 255.53 162.878 255.837C162.897 256.146 162.913 256.455 162.932 256.772C162.971 257.431 163.006 258.087 163.042 258.743C163.099 259.733 163.157 260.72 163.214 261.707C163.419 265.303 163.55 268.882 163.493 272.483C162.93 272.492 162.369 272.5 161.806 272.511C161.374 272.516 160.939 272.524 160.507 272.533C160.225 272.535 160.225 272.535 159.941 272.538C159.75 272.541 159.561 272.544 159.364 272.546C158.844 272.483 158.844 272.483 158.024 271.937C157.915 271.395 157.915 271.395 157.904 270.72C157.901 270.468 157.896 270.217 157.887 269.957C157.887 269.686 157.885 269.413 157.885 269.134C157.879 268.855 157.874 268.576 157.868 268.289C157.855 267.397 157.844 266.506 157.835 265.615C157.827 265.01 157.816 264.406 157.808 263.805C157.783 262.322 157.764 260.84 157.751 259.358C157.57 259.358 157.39 259.358 157.204 259.358C157.171 259.624 157.141 259.889 157.108 260.162C156.933 261.382 156.602 262.544 156.255 263.722C156.157 264.064 156.157 264.064 156.055 264.412C155.916 264.89 155.779 265.366 155.64 265.842C155.424 266.574 155.213 267.307 155.003 268.04C154.866 268.505 154.732 268.967 154.598 269.432C154.532 269.651 154.469 269.872 154.404 270.099C153.953 271.633 153.953 271.633 153.649 271.937C152.968 271.964 152.296 271.975 151.615 271.972C151.426 271.972 151.235 271.975 151.041 271.975C149.616 271.972 149.616 271.972 149.001 271.663C148.782 270.969 148.596 270.288 148.426 269.58C148.375 269.369 148.323 269.156 148.268 268.94C148.156 268.489 148.046 268.037 147.937 267.589C147.773 266.908 147.603 266.227 147.434 265.546C146.906 263.4 146.398 261.259 145.993 259.085C145.744 260.624 145.64 262.145 145.572 263.698C145.555 264.078 145.555 264.078 145.536 264.464C145.501 265.262 145.465 266.063 145.427 266.862C145.402 267.406 145.378 267.95 145.353 268.497C145.293 269.826 145.233 271.155 145.173 272.483C144.358 272.492 143.543 272.497 142.728 272.503C142.496 272.503 142.263 272.505 142.023 272.508C141.801 272.508 141.582 272.511 141.353 272.511C141.148 272.514 140.942 272.514 140.732 272.516C140.251 272.483 140.251 272.483 139.977 272.21C139.966 271.822 139.977 271.433 139.996 271.045C140.007 270.799 140.018 270.55 140.029 270.296C140.051 269.889 140.051 269.889 140.073 269.473C140.087 269.191 140.1 268.91 140.114 268.62C140.158 267.72 140.204 266.821 140.251 265.921C140.273 265.494 140.273 265.494 140.294 265.06C140.379 263.372 140.475 261.688 140.576 260.001C140.609 259.427 140.642 258.853 140.672 258.278C140.718 257.431 140.767 256.586 140.819 255.741C140.833 255.484 140.847 255.227 140.86 254.962C140.874 254.724 140.891 254.489 140.907 254.242C140.918 254.035 140.929 253.83 140.942 253.614C141.26 252.263 142.137 252.148 143.387 252.151Z" fill="white"/>
<path d="M60.4831 253.875C61.7601 255.25 62.132 256.349 62.1046 258.206C61.987 259.423 61.4156 260.013 60.5269 260.795C59.8597 261.274 59.8597 261.274 59.3128 261.547C59.5316 261.695 59.5316 261.695 59.7531 261.848C61.987 263.439 61.987 263.439 62.5941 264.828C62.7964 266.669 62.8949 268.205 61.7738 269.75C60.248 271.55 58.5882 272.124 56.305 272.485C54.916 272.597 53.5242 272.591 52.1296 272.575C51.4952 272.57 50.8609 272.57 50.2238 272.572C49.8191 272.572 49.4117 272.57 49.007 272.567C48.7226 272.567 48.7226 272.567 48.4327 272.567C47.4429 272.553 47.0355 272.504 46.1878 271.938C46.0839 271.172 46.0839 271.172 46.0812 270.182C46.0812 270.002 46.0785 269.821 46.0757 269.636C46.073 269.039 46.0757 268.443 46.0785 267.845C46.0785 267.432 46.0785 267.016 46.0757 266.603C46.0757 265.734 46.0757 264.867 46.0812 263.997C46.0839 262.884 46.0812 261.769 46.0785 260.656C46.0757 259.8 46.0757 258.944 46.0785 258.088C46.0785 257.678 46.0785 257.268 46.0757 256.858C46.073 256.284 46.0757 255.709 46.0812 255.135C46.0812 254.807 46.0839 254.482 46.0839 254.145C46.1878 253.344 46.1878 253.344 46.5542 252.833C49.4527 250.85 57.8663 251.649 60.4831 253.875Z" fill="white"/>
<path d="M95.2524 252.199C95.5478 252.196 95.8431 252.193 96.1493 252.188C98.8345 252.185 101.205 252.401 103.335 254.165C104.393 255.518 104.746 256.53 104.771 258.231C104.779 258.512 104.784 258.794 104.793 259.084C104.607 260.793 103.453 261.805 102.242 262.915C102.061 262.915 101.881 262.915 101.695 262.915C101.812 263.038 101.927 263.164 102.047 263.292C103.912 265.583 105.523 269.502 105.523 272.485C104.675 272.501 103.825 272.51 102.977 272.518C102.616 272.526 102.616 272.526 102.247 272.532C102.015 272.534 101.782 272.537 101.544 272.537C101.331 272.54 101.118 272.542 100.899 272.545C100.327 272.485 100.327 272.485 99.5071 271.938C99.2856 271.394 99.2856 271.394 99.1161 270.735C99.0505 270.497 98.9876 270.259 98.9192 270.013C98.788 269.51 98.6595 269.01 98.531 268.507C98.1153 266.997 97.7626 266.062 96.4993 265.102C95.7692 264.966 95.7692 264.966 95.1321 265.102C94.6481 265.586 94.7958 266.3 94.7739 266.956C94.7603 267.276 94.7493 267.596 94.7384 267.927C94.7274 268.263 94.7165 268.599 94.7056 268.947C94.6946 269.286 94.681 269.622 94.67 269.969C94.6399 270.809 94.6126 271.646 94.5853 272.485C93.7321 272.493 92.8763 272.496 92.0231 272.501C91.7798 272.504 91.5364 272.507 91.2849 272.51C90.9376 272.51 90.9376 272.51 90.5794 272.512C90.2595 272.512 90.2595 272.512 89.9286 272.515C89.3899 272.485 89.3899 272.485 88.8431 272.212C88.8239 269.764 88.8103 267.32 88.8021 264.873C88.7966 263.738 88.7911 262.603 88.7829 261.466C88.772 260.372 88.7692 259.275 88.7665 258.179C88.7638 257.76 88.761 257.342 88.7583 256.924C88.7501 256.339 88.7501 255.753 88.7501 255.168C88.7501 254.835 88.7474 254.501 88.7446 254.159C88.8431 253.344 88.8431 253.344 89.2013 252.83C90.7462 251.802 93.4751 252.199 95.2524 252.199Z" fill="white"/>
<path d="M200.372 252.182C200.831 252.173 200.831 252.173 201.299 252.165C203.908 252.152 206.254 252.48 208.335 254.164C209.778 255.761 209.828 257.117 209.817 259.214C209.653 260.617 209.092 261.429 208.061 262.367C207.7 262.643 207.334 262.917 206.967 263.187C207.074 263.308 207.181 263.428 207.29 263.551C208.575 265.115 209.13 266.674 209.669 268.604C209.754 268.889 209.836 269.17 209.923 269.463C210.522 271.525 210.522 271.525 210.522 272.484C209.674 272.509 208.827 272.523 207.976 272.536C207.736 272.542 207.495 272.55 207.246 272.555C207.017 272.558 206.784 272.561 206.544 272.564C206.33 272.569 206.117 272.572 205.898 272.577C205.163 272.457 204.949 272.257 204.506 271.664C204.269 271.082 204.269 271.082 204.077 270.417C204.009 270.177 203.938 269.936 203.867 269.687C203.795 269.438 203.724 269.187 203.653 268.93C203.511 268.435 203.366 267.937 203.224 267.442C203.161 267.223 203.101 267.005 203.035 266.778C202.899 266.307 202.748 265.84 202.592 265.375C202.19 265.323 201.786 265.271 201.381 265.222C201.154 265.192 200.93 265.164 200.697 265.134C200.511 265.123 200.326 265.112 200.131 265.102C199.647 265.586 199.795 266.299 199.773 266.958C199.762 267.275 199.749 267.595 199.738 267.926C199.727 268.262 199.716 268.599 199.705 268.946C199.694 269.285 199.683 269.621 199.669 269.971C199.642 270.808 199.612 271.648 199.585 272.484C198.726 272.493 197.865 272.498 197.006 272.501C196.76 272.503 196.514 272.506 196.262 272.509C195.912 272.509 195.912 272.509 195.554 272.512C195.338 272.512 195.122 272.514 194.898 272.514C194.389 272.484 194.389 272.484 194.116 272.211C194.088 271.618 194.08 271.024 194.078 270.431C194.078 270.245 194.075 270.059 194.075 269.868C194.072 269.252 194.072 268.634 194.072 268.016C194.069 267.59 194.069 267.161 194.069 266.734C194.067 265.837 194.067 264.94 194.067 264.043C194.067 262.892 194.064 261.738 194.058 260.587C194.056 259.704 194.056 258.821 194.056 257.937C194.056 257.514 194.053 257.09 194.05 256.663C194.047 256.073 194.05 255.479 194.05 254.886C194.05 254.547 194.05 254.208 194.05 253.861C194.116 253.07 194.116 253.07 194.663 252.523C196.552 252.176 198.458 252.19 200.372 252.182Z" fill="white"/>
<path d="M13.3579 252.165C13.5875 252.159 13.8172 252.156 14.0551 252.151C15.6821 252.151 17.0739 252.422 18.5696 253.07C18.7063 253.206 18.7063 253.206 18.843 253.343C18.8047 254.776 18.5368 256.108 18.0227 257.445C17.6973 257.354 17.3692 257.264 17.0329 257.171C14.159 256.548 11.6379 256.701 8.99926 257.992C8.72856 258.082 8.45785 258.172 8.17895 258.265C7.86996 258.831 7.86996 258.831 7.63207 259.632C7.55551 259.832 7.47895 260.031 7.39691 260.236C6.65043 262.32 6.88012 263.829 7.64848 265.869C9.05941 267.463 10.6235 267.909 12.7071 268.057C13.2895 268.076 13.8692 268.092 14.468 268.109C14.3778 266.936 14.2875 265.763 14.1946 264.554C13.7954 264.559 13.3934 264.565 12.9805 264.573C12.5649 264.579 12.1493 264.573 11.7336 264.554C11.2414 264.062 11.4137 263.324 11.411 262.659C11.4055 262.361 11.4028 262.066 11.3973 261.762C11.4602 260.999 11.4602 260.999 12.0071 260.452C12.7426 260.387 12.7426 260.387 13.6668 260.39C13.9977 260.39 14.3258 260.392 14.6676 260.392C15.0121 260.395 15.3594 260.398 15.7149 260.4C16.2371 260.403 16.2371 260.403 16.7676 260.403C19.3516 260.414 19.3516 260.414 19.6633 260.726C19.6879 261.535 19.6961 262.336 19.6907 263.146C19.6907 263.389 19.6907 263.63 19.6907 263.881C19.6879 264.658 19.6852 265.434 19.6797 266.214C19.6797 266.739 19.6797 267.264 19.677 267.789C19.6743 269.082 19.6688 270.373 19.6633 271.663C17.3145 272.229 15.0942 272.631 12.6743 272.604C12.4036 272.601 12.1329 272.599 11.8539 272.596C8.17621 272.514 5.2559 271.475 2.60902 268.828C1.0641 266.334 0.364102 263.769 0.932852 260.849C1.71488 258.008 3.01918 255.881 5.44457 254.163C8.00121 252.733 10.4567 252.154 13.3579 252.165Z" fill="white"/>
<path d="M176.739 252.223C177.179 252.223 177.179 252.223 177.63 252.226C177.939 252.229 178.248 252.231 178.565 252.234C179.03 252.234 179.03 252.234 179.506 252.237C180.274 252.24 181.043 252.245 181.811 252.251C182.59 253.951 183.146 255.701 183.701 257.484C183.851 257.963 183.851 257.963 184.004 258.449C184.321 259.464 184.638 260.481 184.956 261.496C185.169 262.176 185.382 262.855 185.596 263.535C186.162 265.332 186.725 267.131 187.28 268.93C187.362 269.19 187.444 269.453 187.529 269.721C187.605 269.967 187.682 270.21 187.758 270.459C187.824 270.672 187.892 270.885 187.961 271.107C188.1 271.665 188.1 271.665 188.1 272.485C187.206 272.507 186.312 272.523 185.418 272.537C185.163 272.542 184.909 272.551 184.649 272.556C184.406 272.559 184.16 272.562 183.908 272.564C183.684 272.57 183.46 272.572 183.228 272.578C182.487 272.46 182.262 272.255 181.811 271.665C181.379 270.497 181.062 269.308 180.717 268.11C179.003 268.11 177.288 268.11 175.522 268.11C175.161 269.554 174.8 270.997 174.428 272.485C172.624 272.485 170.819 272.485 168.96 272.485C168.544 271.648 168.88 271.121 169.151 270.24C169.203 270.068 169.255 269.893 169.31 269.712C169.482 269.135 169.66 268.561 169.837 267.984C169.96 267.585 170.081 267.183 170.204 266.784C170.458 265.942 170.715 265.102 170.972 264.26C171.303 263.185 171.631 262.111 171.959 261.033C172.271 260.005 172.583 258.98 172.897 257.952C172.957 257.758 173.015 257.561 173.078 257.361C173.247 256.806 173.417 256.248 173.589 255.693C173.685 255.379 173.78 255.062 173.881 254.736C174.128 253.979 174.368 253.246 174.702 252.524C175.415 252.166 175.94 252.218 176.739 252.223Z" fill="white"/>
<path d="M28.2945 252.157C28.5461 252.157 28.7977 252.157 29.0574 252.157C29.3281 252.162 29.5988 252.165 29.8777 252.171C30.1566 252.171 30.4355 252.173 30.7199 252.173C31.6086 252.179 32.4973 252.187 33.3859 252.198C33.9902 252.203 34.5918 252.206 35.1934 252.209C36.6699 252.22 38.1492 252.233 39.6258 252.25C40.0359 253.07 39.9238 253.833 39.9156 254.746C39.9129 255.096 39.9102 255.446 39.9074 255.807C39.9047 256.078 39.902 256.346 39.8992 256.625C39.675 256.633 39.4535 256.638 39.2238 256.647C38.2258 256.677 37.225 256.71 36.2242 256.745C35.8742 256.756 35.5242 256.767 35.1633 256.778C34.8324 256.789 34.4988 256.8 34.157 256.811C33.848 256.822 33.5418 256.833 33.2246 256.844C32.5355 256.819 32.5355 256.819 32.243 257.172C32.2211 257.587 32.2184 258.003 32.2238 258.419C32.2266 258.646 32.2293 258.872 32.232 259.105C32.2348 259.28 32.2375 259.452 32.243 259.633C32.448 259.641 32.6531 259.646 32.8664 259.654C33.7906 259.685 34.7176 259.717 35.6418 259.753C35.9672 259.764 36.2898 259.775 36.6234 259.786C36.9324 259.797 37.2387 259.808 37.5559 259.819C37.8402 259.829 38.1246 259.84 38.4199 259.851C39.0789 259.906 39.0789 259.906 39.3523 260.179C39.3715 260.871 39.377 261.555 39.3687 262.247C39.366 262.441 39.366 262.635 39.366 262.837C39.3605 263.319 39.3578 263.8 39.3523 264.281C39.1445 264.289 38.9395 264.295 38.7289 264.303C37.802 264.333 36.8777 264.366 35.9508 264.401C35.6281 264.412 35.3027 264.423 34.9691 264.434C34.6629 264.445 34.3539 264.456 34.0367 264.467C33.6102 264.483 33.6102 264.483 33.1754 264.5C32.5301 264.483 32.5301 264.483 32.243 264.828C32.2211 265.334 32.2184 265.842 32.2238 266.348C32.2266 266.624 32.2293 266.903 32.232 267.188C32.2348 267.401 32.2375 267.614 32.243 267.836C32.5875 267.847 32.5875 267.847 32.9402 267.858C33.7934 267.882 34.6465 267.91 35.4969 267.937C35.8688 267.951 36.2379 267.962 36.607 267.972C37.1375 267.989 37.668 268.005 38.1957 268.022C38.5156 268.033 38.8355 268.044 39.1637 268.054C39.8992 268.109 39.8992 268.109 40.1727 268.383C40.1918 269.074 40.1973 269.758 40.1891 270.45C40.1863 270.644 40.1863 270.838 40.1863 271.04C40.1809 271.522 40.1781 272.003 40.1727 272.484C38.275 272.492 36.3746 272.495 34.477 272.501C33.8316 272.501 33.1863 272.503 32.5383 272.506C31.6113 272.509 30.6844 272.509 29.7574 272.512C29.4676 272.512 29.1777 272.514 28.877 272.514C28.609 272.514 28.341 272.514 28.0648 272.514C27.8297 272.517 27.5918 272.517 27.3484 272.517C26.7742 272.484 26.7742 272.484 26.2273 272.211C26.2082 269.731 26.1918 267.248 26.1836 264.768C26.1809 263.614 26.1727 262.463 26.1645 261.309C26.1563 260.199 26.1508 259.086 26.148 257.976C26.148 257.552 26.1453 257.125 26.1398 256.701C26.1344 256.108 26.1316 255.515 26.1344 254.921C26.1316 254.582 26.1289 254.243 26.1289 253.896C26.2273 253.07 26.2273 253.07 26.5637 252.551C27.1816 252.165 27.5699 252.151 28.2945 252.157Z" fill="white"/>
<path d="M113.06 252.157C113.312 252.157 113.563 252.157 113.823 252.157C114.094 252.162 114.364 252.165 114.643 252.171C114.922 252.171 115.201 252.173 115.486 252.173C116.374 252.179 117.263 252.187 118.152 252.198C118.756 252.203 119.357 252.206 119.959 252.209C121.436 252.22 122.915 252.233 124.391 252.25C125.045 253.557 124.665 255.165 124.665 256.625C122.048 256.715 119.431 256.805 116.735 256.898C116.825 257.801 116.916 258.703 117.009 259.633C117.214 259.641 117.419 259.646 117.632 259.654C118.556 259.685 119.483 259.717 120.407 259.753C120.733 259.764 121.055 259.775 121.389 259.786C121.698 259.797 122.004 259.808 122.321 259.819C122.606 259.829 122.89 259.84 123.186 259.851C123.845 259.906 123.845 259.906 124.118 260.179C124.137 260.871 124.143 261.555 124.134 262.247C124.132 262.441 124.132 262.635 124.132 262.837C124.126 263.319 124.123 263.8 124.118 264.281C123.91 264.289 123.705 264.295 123.495 264.303C122.568 264.333 121.643 264.366 120.716 264.401C120.394 264.412 120.068 264.423 119.735 264.434C119.429 264.445 119.12 264.456 118.802 264.467C118.376 264.483 118.376 264.483 117.941 264.5C117.296 264.483 117.296 264.483 117.009 264.828C116.938 265.282 116.883 265.738 116.836 266.195C116.798 266.567 116.798 266.567 116.757 266.947C116.746 267.251 116.746 267.251 116.735 267.562C117.233 268.063 118.029 267.896 118.698 267.912C119.043 267.923 119.387 267.934 119.74 267.945C120.104 267.953 120.47 267.964 120.837 267.972C121.548 267.992 122.261 268.011 122.972 268.033C123.289 268.041 123.607 268.049 123.935 268.057C124.665 268.109 124.665 268.109 124.938 268.383C124.957 269.074 124.963 269.758 124.955 270.45C124.952 270.644 124.952 270.838 124.952 271.04C124.946 271.522 124.944 272.003 124.938 272.484C123.041 272.492 121.14 272.495 119.243 272.501C118.597 272.501 117.952 272.503 117.304 272.506C116.377 272.509 115.45 272.509 114.523 272.512C114.233 272.512 113.943 272.514 113.643 272.514C113.375 272.514 113.107 272.514 112.83 272.514C112.595 272.517 112.357 272.517 112.114 272.517C111.54 272.484 111.54 272.484 110.993 272.211C110.974 269.731 110.957 267.248 110.949 264.768C110.946 263.614 110.938 262.463 110.93 261.309C110.922 260.199 110.916 259.086 110.914 257.976C110.914 257.552 110.911 257.125 110.905 256.701C110.9 256.108 110.897 255.515 110.9 254.921C110.897 254.582 110.895 254.243 110.895 253.896C110.993 253.07 110.993 253.07 111.329 252.551C111.947 252.165 112.336 252.151 113.06 252.157Z" fill="white"/>
<path d="M69.9711 252.182C70.1926 252.182 70.4141 252.182 70.641 252.182C71.0184 252.182 71.0184 252.182 71.4012 252.18C71.6746 252.182 71.9453 252.185 72.2242 252.188C72.6426 252.188 72.6426 252.188 73.0664 252.188C73.6543 252.188 74.2422 252.191 74.8301 252.193C75.7324 252.199 76.6348 252.199 77.5398 252.199C78.1086 252.202 78.6801 252.202 79.2488 252.204C79.6562 252.204 79.6562 252.204 80.0719 252.204C80.3234 252.207 80.5723 252.21 80.832 252.21C81.1629 252.212 81.1629 252.212 81.502 252.212C82.0078 252.251 82.0078 252.251 82.2812 252.524C82.3004 253.216 82.3059 253.9 82.2977 254.591C82.2977 254.785 82.2949 254.98 82.2949 255.179C82.2922 255.663 82.2867 256.144 82.2812 256.626C82.0598 256.631 81.8355 256.639 81.6086 256.645C80.6078 256.678 79.607 256.71 78.6063 256.743C78.2563 256.754 77.9062 256.765 77.548 256.776C77.2145 256.79 76.8836 256.801 76.5391 256.812C76.2328 256.823 75.9238 256.831 75.6066 256.842C74.9176 256.82 74.9176 256.82 74.625 257.173C74.6059 257.588 74.6031 258.004 74.6086 258.419C74.6113 258.646 74.6141 258.871 74.6141 259.103C74.6195 259.278 74.6223 259.453 74.625 259.634C74.8301 259.639 75.0352 259.647 75.2484 259.653C76.1754 259.685 77.0996 259.718 78.0266 259.751C78.3492 259.762 78.6746 259.773 79.0082 259.784C79.3145 259.798 79.6207 259.809 79.9379 259.819C80.225 259.83 80.5094 259.839 80.802 259.85C81.4609 259.907 81.4609 259.907 81.7344 260.18C81.7535 260.872 81.759 261.556 81.7508 262.248C81.7508 262.442 81.748 262.636 81.748 262.835C81.7453 263.319 81.7398 263.801 81.7344 264.282C81.5293 264.287 81.3242 264.296 81.1109 264.301C80.184 264.334 79.2598 264.367 78.3328 264.4C78.0102 264.41 77.6848 264.421 77.3512 264.432C77.0449 264.446 76.7387 264.457 76.4215 264.468C75.9922 264.484 75.9922 264.484 75.5574 264.498C74.9121 264.482 74.9121 264.482 74.625 264.829C74.6059 265.335 74.6031 265.843 74.6086 266.349C74.6113 266.625 74.6141 266.902 74.6141 267.189C74.6195 267.402 74.6223 267.615 74.625 267.837C74.9832 267.845 74.9832 267.845 75.3496 267.856C76.2328 267.883 77.116 267.91 77.9992 267.938C78.3793 267.949 78.7621 267.96 79.1449 267.971C79.6945 267.987 80.2441 268.006 80.7938 268.023C81.1246 268.034 81.4555 268.042 81.7945 268.053C82.5547 268.11 82.5547 268.11 82.8281 268.384C82.8473 269.075 82.8527 269.759 82.8445 270.451C82.8445 270.645 82.8418 270.839 82.8418 271.039C82.8391 271.523 82.8336 272.004 82.8281 272.485C80.8867 272.491 78.9426 272.496 77.0012 272.499C76.3395 272.502 75.6805 272.502 75.0187 272.504C74.0699 272.507 73.1211 272.51 72.175 272.51C71.877 272.512 71.5789 272.515 71.2727 272.515C70.8625 272.515 70.8625 272.515 70.4414 272.515C70.0777 272.515 70.0777 272.515 69.7086 272.518C69.1562 272.485 69.1562 272.485 68.8828 272.212C68.8555 271.61 68.8445 271.009 68.8418 270.407C68.8418 270.123 68.8418 270.123 68.8391 269.835C68.8363 269.209 68.8363 268.583 68.8363 267.957C68.8363 267.522 68.8363 267.09 68.8336 266.655C68.8336 265.745 68.8309 264.837 68.8309 263.927C68.8309 262.759 68.8281 261.589 68.8227 260.421C68.8199 259.527 68.8199 258.63 68.8199 257.733C68.8199 257.304 68.8199 256.872 68.8172 256.443C68.8145 255.841 68.8145 255.239 68.8172 254.638C68.8145 254.124 68.8145 254.124 68.8145 253.599C68.891 252.688 69.0168 252.303 69.9711 252.182Z" fill="white"/>
<path d="M216.944 252.157C217.403 252.157 217.403 252.157 217.874 252.157C218.204 252.162 218.535 252.165 218.874 252.171C219.213 252.171 219.553 252.173 219.903 252.173C220.802 252.176 221.699 252.184 222.599 252.192C223.517 252.203 224.436 252.206 225.355 252.209C227.157 252.22 228.956 252.233 230.758 252.25C231.176 253.089 231.059 253.964 231.048 254.883C231.048 255.074 231.045 255.269 231.045 255.468C231.042 255.944 231.037 256.423 231.031 256.898C230.504 256.923 230.504 256.923 229.965 256.948C229.506 256.972 229.046 256.994 228.587 257.019C228.354 257.03 228.122 257.04 227.884 257.051C227.663 257.062 227.441 257.073 227.212 257.084C226.905 257.101 226.905 257.101 226.591 257.117C226.101 257.123 226.101 257.123 225.836 257.445C225.803 257.915 225.787 258.386 225.779 258.856C225.773 259.157 225.768 259.46 225.762 259.769C225.76 260.098 225.754 260.426 225.749 260.762C225.743 261.096 225.738 261.429 225.732 261.771C225.713 262.843 225.697 263.912 225.683 264.981C225.669 265.706 225.658 266.428 225.647 267.152C225.617 268.93 225.59 270.707 225.563 272.484C224.701 272.492 223.843 272.498 222.981 272.501C222.612 272.506 222.612 272.506 222.238 272.509C221.888 272.509 221.888 272.509 221.529 272.512C221.313 272.512 221.097 272.514 220.876 272.514C220.367 272.484 220.367 272.484 220.094 272.211C220.061 271.74 220.045 271.27 220.037 270.8C220.031 270.499 220.026 270.198 220.02 269.887C220.017 269.558 220.012 269.233 220.006 268.894C220.001 268.56 219.996 268.227 219.99 267.885C219.971 266.813 219.954 265.744 219.941 264.675C219.927 263.95 219.916 263.228 219.905 262.504C219.875 260.726 219.848 258.949 219.821 257.172C219.49 257.155 219.162 257.139 218.822 257.123C218.39 257.098 217.961 257.076 217.529 257.051C217.313 257.04 217.097 257.03 216.873 257.019C215.235 256.928 215.235 256.928 214.625 256.625C214.603 256.051 214.587 255.474 214.573 254.899C214.565 254.58 214.554 254.257 214.546 253.929C214.625 253.07 214.625 253.07 214.945 252.614C215.634 252.113 216.099 252.151 216.944 252.157Z" fill="white"/>
<path d="M143.805 287.797C144.384 288.054 144.384 288.054 144.898 288.344C144.838 288.664 144.781 288.984 144.718 289.312C144.641 289.736 144.565 290.159 144.488 290.583C144.45 290.794 144.409 291.004 144.371 291.22C144.179 292.278 144.026 293.277 144.078 294.359C144.239 294.242 144.401 294.121 144.567 294.001C144.893 293.771 144.893 293.771 145.224 293.539C145.434 293.386 145.648 293.236 145.866 293.077C146.626 292.672 147.056 292.593 147.906 292.719C148.401 293.402 148.401 293.402 148.726 294.086C148.273 294.362 147.816 294.636 147.359 294.906C147.195 295.005 147.031 295.103 146.862 295.204C145.508 296 145.508 296 144.898 296C145.161 296.949 145.432 297.356 146.181 298.018C147.316 298.573 147.786 298.513 149 298.187C149.58 297.646 150.003 297.187 150.471 296.563C150.589 296.413 150.709 296.262 150.832 296.107C151.275 295.543 151.688 295.002 152.008 294.359C152.278 294.359 152.549 294.359 152.828 294.359C152.828 294.54 152.828 294.72 152.828 294.906C153.008 294.906 153.189 294.906 153.375 294.906C152.926 297.353 150.698 299.549 148.726 300.922C147.786 301.299 147.786 301.299 146.812 301.195C145.311 300.493 143.96 299.544 142.711 298.461C142.621 299.544 142.53 300.627 142.437 301.742C141.513 301.775 141.513 301.775 140.523 301.742C140.343 301.562 140.162 301.381 139.976 301.195C140.034 300.421 140.034 300.421 140.198 299.486C140.25 299.18 140.305 298.874 140.357 298.559C140.411 298.256 140.466 297.952 140.523 297.641C140.616 297.094 140.707 296.547 140.797 296C140.127 296.648 139.487 297.302 138.877 298.01C135.566 301.854 135.566 301.854 133.316 302.081C131.541 302.128 130.464 302.013 129.039 300.922C128.514 300.091 128.399 299.363 128.323 298.393C128.301 298.149 128.282 297.906 128.26 297.654C128.246 297.468 128.232 297.285 128.219 297.094C128.068 297.291 127.921 297.49 127.767 297.695C124.864 301.417 124.864 301.417 122.643 301.879C121.582 301.936 120.951 301.802 119.999 301.316C119.05 300.123 119.46 298.491 119.622 297.036C119.646 296.848 119.668 296.656 119.69 296.462C119.72 296.17 119.72 296.17 119.75 295.869C119.816 295.303 119.816 295.303 120.016 294.359C120.836 293.812 120.836 293.812 121.552 293.897C122.203 294.086 122.203 294.086 122.476 294.359C122.641 296.063 122.364 297.641 121.93 299.281C122.425 299.489 122.425 299.489 123.023 299.555C124.735 298.573 125.933 296.779 127.076 295.223C127.672 294.633 127.672 294.633 128.394 294.545C128.607 294.575 128.82 294.603 129.039 294.633C129.985 294.633 130.669 293.911 131.421 293.378C132.695 292.593 134.136 292.525 135.601 292.719C136.318 293.181 136.318 293.181 136.695 293.812C136.712 294.529 136.712 294.529 136.422 295.18C135.722 295.538 135.722 295.538 135.055 295.727C134.677 295.374 134.314 295.007 133.961 294.633C133.961 294.452 133.961 294.272 133.961 294.086C132.575 294.652 131.918 295.212 131.226 296.547C130.989 297.621 130.876 298.234 131.226 299.281C132.252 299.965 132.744 299.951 133.961 299.828C136.157 298.707 137.811 296.653 139.156 294.633C139.878 294.723 140.6 294.813 141.344 294.906C141.434 293.462 141.524 292.019 141.617 290.531C141.166 290.261 140.715 289.99 140.25 289.711C139.908 289.03 140.037 288.778 140.25 288.07C140.46 288.073 140.671 288.076 140.89 288.081C141.3 288.084 141.3 288.084 141.721 288.087C142.128 288.092 142.128 288.092 142.547 288.098C143.252 288.12 143.252 288.12 143.805 287.797Z" fill="#000100"/>
<path d="M46.7343 292.172C48.5171 292.18 49.5535 292.549 50.9097 293.709C51.8476 294.455 52.7472 294.389 53.8956 294.376C54.191 294.373 54.489 294.37 54.7952 294.37C55.0222 294.365 55.2492 294.362 55.4843 294.359C55.3476 293.547 55.3476 293.547 55.2109 292.719C55.7824 292.371 56.1761 292.172 56.8515 292.172C57.7183 292.604 58.0136 293.257 58.4921 294.086C58.7163 294.794 58.8503 295.505 58.9706 296.241C59.0062 296.427 59.039 296.615 59.0745 296.809C59.1566 297.269 59.2359 297.728 59.3124 298.187C59.4929 298.187 59.6734 298.187 59.8593 298.187C59.9277 297.98 59.996 297.769 60.0644 297.556C60.521 296.208 61.0105 294.873 61.4999 293.539C62.2874 293.37 62.2874 293.37 63.1406 293.266C63.6874 293.812 63.6874 293.812 63.7257 294.4C63.7093 294.638 63.6956 294.876 63.682 295.122C63.6601 295.508 63.6601 295.508 63.6382 295.902C63.6218 296.172 63.6027 296.44 63.5835 296.716C63.5617 297.124 63.5617 297.124 63.537 297.539C63.4988 298.212 63.4577 298.882 63.414 299.555C64.0812 299.481 64.0812 299.481 64.7812 299.281C65.8503 297.55 65.7792 295.743 65.4648 293.78C65.4183 293.61 65.3745 293.441 65.3281 293.266C65.9597 293.085 66.5913 292.905 67.2421 292.719C67.8109 293.181 68.0406 293.435 68.191 294.162C68.2183 296.623 67.5265 298.863 65.9952 300.818C64.9644 301.821 64.9644 301.821 64.2343 302.016C63.0913 301.936 62.4597 301.835 61.4999 301.195C61.1745 300.342 61.1745 300.342 60.9531 299.555C60.841 299.689 60.7288 299.825 60.614 299.965C60.4663 300.14 60.3187 300.315 60.1656 300.495C60.0206 300.67 59.8757 300.843 59.7253 301.023C59.1156 301.682 58.8394 301.739 57.9288 301.775C57.1249 301.742 57.1249 301.742 56.8515 301.469C56.7995 300.832 56.764 300.195 56.7312 299.555C56.6437 297.952 56.4386 296.459 56.0312 294.906C55.7769 295.169 55.7769 295.169 55.5171 295.437C54.6093 296.317 54.0898 296.306 52.8538 296.29C52.5777 296.287 52.3042 296.284 52.0226 296.284C51.812 296.279 51.5988 296.276 51.3827 296.273C51.3581 296.429 51.3363 296.585 51.3117 296.744C50.9398 298.789 50.2589 300.02 48.632 301.316C47.2593 302.002 45.7609 302.007 44.2734 301.742C43.412 301.316 42.723 300.821 42.0859 300.102C41.6183 298.699 41.6347 297.351 42.1023 295.948C42.8706 294.832 43.7566 293.774 45.0964 293.375C45.6242 293.298 45.6242 293.298 46.4609 293.266C46.5511 292.905 46.6413 292.544 46.7343 292.172Z" fill="#000100"/>
<path d="M200.68 292.719C201.467 292.686 201.467 292.686 202.32 292.719C202.501 292.899 202.681 293.08 202.867 293.266C202.801 293.892 202.801 293.892 202.626 294.649C202.339 296.049 202.274 297.31 202.32 298.734C203.46 298.6 203.936 298.338 204.661 297.452C204.825 297.258 204.986 297.061 205.156 296.859C205.533 296.361 205.872 295.863 206.2 295.333C206.695 294.633 206.695 294.633 207.258 294.444C207.433 294.417 207.608 294.389 207.789 294.359C207.926 294.225 208.06 294.089 208.199 293.949C208.708 293.441 208.981 293.287 209.703 293.266C210.668 294.061 211.089 294.882 211.549 296.033C211.666 296.323 211.784 296.61 211.904 296.908C212.164 297.641 212.164 297.641 212.164 298.187C212.435 298.187 212.705 298.187 212.984 298.187C213.835 296.391 214.581 294.616 215.172 292.719C215.823 292.803 215.823 292.803 216.539 292.992C217.086 293.812 217.086 293.812 217.045 294.57C216.003 298.537 212.405 303.241 209.003 305.45C207.822 305.945 207.144 305.991 205.875 305.844C205.328 305.434 205.328 305.434 205.055 305.023C205.235 304.572 205.416 304.121 205.601 303.656C205.774 303.659 205.946 303.662 206.124 303.664C207.855 303.604 208.907 303.235 210.146 302.002C210.603 301.452 210.603 301.452 210.592 300.564C210.16 299.292 209.681 298.053 209.156 296.82C208.973 296.364 208.79 295.91 208.609 295.453C207.923 296.063 207.458 296.757 206.966 297.526C205.88 299.205 204.806 300.722 202.867 301.469C201.803 301.485 201.237 301.357 200.321 300.837C199.832 300.348 199.605 299.902 199.312 299.281C199.162 299.437 199.009 299.59 198.853 299.749C198.656 299.951 198.457 300.151 198.251 300.359C198.057 300.558 197.86 300.758 197.658 300.963C196.797 301.78 196.135 301.841 194.948 301.816C193.997 301.69 193.608 301.398 193.023 300.648C192.78 298.926 193.166 297.239 193.57 295.573C193.622 295.349 193.674 295.125 193.729 294.895C193.855 294.351 193.986 293.807 194.117 293.266C194.749 293.266 195.38 293.266 196.031 293.266C196.821 294.846 195.886 297.203 195.38 298.778C195.326 298.945 195.268 299.112 195.211 299.281C196.192 299.205 196.715 299.134 197.453 298.461C198.834 296.629 199.876 294.865 200.68 292.719Z" fill="#000100"/>
<path d="M187.555 289.984C188.233 290.807 188.378 291.234 188.359 292.309C188.082 293.331 187.727 293.867 187.008 294.633C187.221 294.841 187.437 295.051 187.659 295.264C188.479 296.107 188.892 296.547 189.026 297.725C188.9 298.953 188.637 299.445 187.828 300.375C185.788 301.977 183.781 302.346 181.23 302.388C180.317 302.273 179.808 302.024 179.078 301.469C178.758 300.509 178.868 300.074 179.067 299.093C179.16 298.636 179.16 298.636 179.253 298.174C179.319 297.857 179.387 297.539 179.455 297.214C179.518 296.897 179.581 296.577 179.65 296.252C180.131 293.895 180.131 293.895 180.445 293.266C179.764 293.383 179.42 293.471 178.925 293.966C178.794 294.097 178.665 294.225 178.531 294.359C178.261 294.359 177.99 294.359 177.711 294.359C177.489 293.487 177.489 293.487 177.438 292.445C178.745 290.572 181.14 289.889 183.3 289.503C184.755 289.366 186.171 289.522 187.555 289.984Z" fill="#000100"/>
<path d="M27.5937 289.711C28.1406 290.531 28.1406 290.531 28.1078 291.231C27.8672 291.898 27.8672 291.898 27.3887 292.309C27.1863 292.352 26.9812 292.399 26.7734 292.445C26.582 292.317 26.3906 292.186 26.1937 292.052C24.9961 291.403 23.968 291.573 22.6719 291.898C21.291 292.508 20.4488 293.465 19.8445 294.835C19.5246 295.934 19.4426 297.064 19.6641 298.187C20.2164 298.857 20.7523 299.278 21.5781 299.555C22.5461 299.577 22.5461 299.577 23.4922 299.281C24.1621 298.619 24.1621 298.619 24.5859 297.914C24.4957 297.734 24.4055 297.553 24.3125 297.367C23.5004 297.367 22.6883 297.367 21.8516 297.367C21.7613 297.006 21.6711 296.645 21.5781 296.273C21.9773 295.696 22.259 295.491 22.9344 295.305C23.134 295.286 23.3309 295.264 23.5359 295.243C23.8613 295.21 23.8613 295.21 24.1922 295.174C24.4191 295.152 24.6434 295.133 24.8758 295.111C25.1027 295.087 25.3297 295.062 25.5621 295.037C27.241 294.868 27.241 294.868 27.8672 295.18C27.6922 296.645 27.375 298.018 26.9621 299.434C26.9074 299.634 26.8527 299.834 26.7953 300.039C26.4262 301.31 25.9832 302.344 25.1328 303.383C24.1074 303.623 24.1074 303.623 23.2187 303.656C23.0301 303.178 23.0301 303.178 22.9453 302.562C23.3391 301.947 23.3391 301.947 23.7656 301.469C23.6289 301.512 23.4949 301.559 23.3555 301.605C21.3594 302.005 19.9867 301.745 18.2969 300.648C17.3973 299.886 16.998 299.35 16.8641 298.152C16.7957 295.871 17.3125 293.936 18.8766 292.224C21.1871 290.127 24.5039 288.855 27.5937 289.711Z" fill="#000100"/>
<path d="M56.8516 292.172C57.7184 292.604 58.0137 293.257 58.4922 294.086C58.7164 294.794 58.8504 295.505 58.9707 296.241C59.0062 296.427 59.0391 296.615 59.0746 296.809C59.1566 297.269 59.2359 297.728 59.3125 298.187C59.493 298.187 59.6734 298.187 59.8594 298.187C59.9277 297.98 59.9961 297.769 60.0645 297.556C60.5211 296.208 61.0105 294.873 61.5 293.539C62.2875 293.37 62.2875 293.37 63.1406 293.266C63.6875 293.812 63.6875 293.812 63.7258 294.4C63.7094 294.638 63.6957 294.876 63.682 295.122C63.6684 295.379 63.652 295.636 63.6383 295.902C63.6219 296.172 63.6027 296.44 63.5836 296.716C63.5699 296.99 63.5535 297.261 63.5371 297.539C63.4988 298.212 63.4578 298.882 63.4141 299.555C64.0813 299.481 64.0813 299.481 64.7812 299.281C65.8504 297.55 65.7793 295.743 65.4648 293.78C65.3965 293.525 65.3965 293.525 65.3281 293.266C65.9598 293.085 66.5914 292.905 67.2422 292.719C67.8109 293.181 68.0406 293.435 68.191 294.162C68.2184 296.623 67.5266 298.863 65.9953 300.818C64.9645 301.821 64.9645 301.821 64.2344 302.016C63.0914 301.936 62.4598 301.835 61.5 301.195C61.1746 300.342 61.1746 300.342 60.9531 299.555C60.841 299.689 60.7289 299.825 60.6141 299.965C60.4664 300.14 60.3187 300.315 60.1656 300.495C60.0207 300.67 59.8758 300.843 59.7254 301.023C59.1156 301.682 58.8395 301.739 57.9289 301.775C57.125 301.742 57.125 301.742 56.8516 301.469C56.7996 300.843 56.7641 300.216 56.7312 299.587C56.6328 297.813 56.4031 296.101 56.0312 294.359C55.8508 294.359 55.6703 294.359 55.4844 294.359C55.3941 293.818 55.3039 293.277 55.2109 292.719C55.7824 292.371 56.1762 292.172 56.8516 292.172Z" fill="#000100"/>
<path d="M106.241 290.155C106.777 291.079 106.578 291.706 106.345 292.72C105.538 292.6 105.251 292.447 104.653 291.864C103.693 291.224 103.165 291.205 102.047 291.386C100.6 291.938 99.7935 293.251 99.1154 294.582C98.8884 295.865 98.7709 297.169 98.9623 298.462C99.4463 299.083 99.9357 299.384 100.603 299.829C102.233 300.021 103.348 299.589 104.704 298.736C104.882 298.553 105.065 298.375 105.251 298.189C105.831 298.29 105.831 298.29 106.345 298.462C106.43 299.075 106.43 299.075 106.345 299.829C104.953 301.309 102.998 302.074 100.994 302.154C99.1756 302.077 97.9068 301.538 96.6545 300.221C95.8314 298.938 95.7986 297.754 95.9545 296.275C96.5095 293.907 97.5486 291.963 99.6459 290.65C101.732 289.559 104.086 288.821 106.241 290.155Z" fill="#000100"/>
<path d="M110.172 288.07C110.896 288.062 111.618 288.057 112.343 288.054C112.548 288.051 112.756 288.048 112.966 288.046C113.494 288.043 114.022 288.057 114.547 288.07C114.637 288.161 114.727 288.251 114.82 288.344C114.804 290.766 114.216 293.148 113.71 295.505C113.631 295.871 113.554 296.241 113.475 296.61C113.286 297.501 113.098 298.39 112.906 299.281C113.885 299.341 113.885 299.341 114.757 298.969C115.941 297.736 116.819 296.429 117.669 294.95C117.812 294.756 117.954 294.559 118.101 294.359C118.372 294.359 118.643 294.359 118.922 294.359C118.922 294.54 118.922 294.72 118.922 294.906C119.102 294.906 119.283 294.906 119.469 294.906C119.324 296.159 118.782 297.028 118.069 298.034C117.902 298.269 117.902 298.269 117.735 298.507C116.778 299.839 115.761 300.998 114.273 301.742C113.043 301.843 112.376 301.895 111.282 301.316C110.571 300.473 110.445 299.809 110.445 298.734C110.607 297.58 110.858 296.451 111.112 295.316C111.714 292.675 111.714 292.675 111.812 289.984C111.599 289.962 111.383 289.941 111.162 289.916C110.445 289.711 110.445 289.711 110.068 289.18C109.898 288.617 109.898 288.617 110.172 288.07Z" fill="#000100"/>
<path d="M40.1718 292.719C40.7187 293.539 40.7187 293.539 40.6503 294.239C40.4452 294.906 40.4452 294.906 39.8984 295.453C39.5702 295.415 39.2449 295.374 38.9085 295.333C38.0827 295.314 37.7847 295.396 37.1284 295.912C35.5726 297.621 34.3831 299.563 33.6093 301.742C32.037 301.775 32.037 301.775 31.4218 301.469C31.3671 300.154 31.5175 299.065 31.832 297.791C32.048 296.695 32.0917 295.587 32.1491 294.471C32.1792 294.253 32.2093 294.037 32.2421 293.812C32.9831 293.443 33.612 293.52 34.4296 293.539C34.8398 294.461 34.9765 294.961 34.9765 296C35.0722 295.809 35.1679 295.617 35.2663 295.42C36.4886 293.607 37.9241 292.527 40.1718 292.719Z" fill="#000100"/>
<path d="M121.554 293.898C122.204 294.087 122.204 294.087 122.478 294.36C122.639 296.061 122.363 297.641 121.931 299.282C122.423 299.49 122.423 299.49 123.025 299.555C124.734 298.574 125.931 296.78 127.077 295.224C127.673 294.633 127.673 294.633 128.428 294.546C128.63 294.576 128.833 294.603 129.04 294.633C129.314 295.454 129.314 295.454 129.005 296.239C128.466 297.138 127.881 297.74 127.126 298.462C126.82 298.858 126.82 298.858 126.508 299.263C125.497 300.485 124.214 301.546 122.639 301.882C121.581 301.932 120.949 301.8 119.998 301.314C119.052 300.121 119.462 298.489 119.623 297.037C119.645 296.848 119.667 296.657 119.692 296.463C119.711 296.266 119.73 296.072 119.749 295.869C119.815 295.303 119.815 295.303 120.017 294.36C120.837 293.813 120.837 293.813 121.554 293.898Z" fill="#000100"/>
<path d="M169.508 288.07C169.508 289.104 169.256 289.257 168.584 290.017C165.294 294.02 162.932 298.948 161.578 303.93C160.807 303.686 160.326 303.533 159.831 302.88C159.054 300.132 162.912 294.849 164.23 292.464C164.468 292.046 164.706 291.63 164.944 291.215C165.053 291.023 165.16 290.832 165.272 290.635C166.303 288.891 167.386 287.567 169.508 288.07Z" fill="#000100"/>
<path d="M87.75 288.07C87.5887 289.06 87.1977 289.55 86.5359 290.291C83.457 294.039 80.8512 299.202 79.8203 303.93C78.5215 303.416 78.5215 303.416 77.9062 303.109C78.0293 301.286 78.7293 299.864 79.5305 298.239C79.6645 297.963 79.7984 297.687 79.9352 297.403C80.802 295.642 81.6988 293.894 82.6395 292.172C82.7461 291.978 82.85 291.784 82.9566 291.584C85.2617 287.466 85.2617 287.466 87.75 288.07Z" fill="#000100"/>
<path d="M53.0896 263.722C53.445 263.763 53.445 263.763 53.8087 263.804C54.0466 263.825 54.2818 263.85 54.5251 263.875C55.2224 264.009 55.7064 264.175 56.3052 264.556C56.997 265.592 57.0189 266.347 56.8521 267.563C56.3572 268.293 56.0646 268.373 55.2115 268.657C54.6974 268.682 54.1861 268.693 53.672 268.69C53.404 268.69 53.1361 268.693 52.8599 268.693C52.2036 268.657 52.2036 268.657 51.9302 268.384C51.8947 267.7 51.8782 267.03 51.8782 266.349C51.8755 266.161 51.8728 265.969 51.8673 265.775C51.8673 265.275 51.8974 264.777 51.9302 264.282C52.4771 263.735 52.4771 263.735 53.0896 263.722Z" fill="#37A048"/>
<path d="M202.32 256.078C203.288 256.529 203.636 256.822 204.234 257.719C204.445 259.616 204.445 259.616 203.739 260.59C202.468 261.189 201.243 261.142 199.859 261C199.332 260.472 199.526 259.548 199.518 258.845C199.509 258.503 199.504 258.159 199.496 257.806C199.586 256.898 199.586 256.898 199.941 256.373C200.732 255.87 201.412 255.985 202.32 256.078Z" fill="#37A048"/>
<path d="M97.2573 256.18C98.2498 256.458 98.6709 256.866 99.2342 257.719C99.4366 258.561 99.3764 259.012 99.2342 259.907C98.7393 260.59 98.7393 260.59 97.867 261C96.8553 261.099 95.8709 261.104 94.8592 261C94.3315 260.473 94.5256 259.548 94.5174 258.846C94.5092 258.504 94.5037 258.159 94.4955 257.807C94.5858 256.899 94.5858 256.899 94.9248 256.366C95.7233 255.887 96.3659 256.043 97.2573 256.18Z" fill="#37A048"/>
<path d="M48.3749 294.906C49.0612 295.937 49.0448 296.416 48.9218 297.641C48.4706 298.773 47.8554 299.831 46.7343 300.375C45.9605 300.337 45.4355 300.134 44.7355 299.812C44.1476 299.139 44.071 298.578 44.112 297.695C44.4265 296.525 45.2632 295.658 46.1874 294.906C47.0132 294.616 47.5546 294.578 48.3749 294.906Z" fill="#37A048"/>
<path d="M185.094 296.273C185.794 296.716 185.794 296.716 186.188 297.367C186.357 298.171 186.357 298.171 186.188 299.008C185.457 299.866 185.028 300.304 183.91 300.468C182.316 300.49 182.316 300.49 181.539 300.102C181.577 299.713 181.618 299.328 181.659 298.939C181.681 298.723 181.703 298.507 181.725 298.286C181.807 297.682 181.892 297.124 182.086 296.547C183.032 296.074 184.06 296.142 185.094 296.273Z" fill="#37A048"/>
<path d="M53.6557 255.976C54.5553 256 54.9491 256.085 55.7749 256.506C56.3053 257.173 56.3053 257.173 56.442 258.147C56.3053 259.087 56.3053 259.087 55.9909 259.549C55.2581 260.063 54.692 259.995 53.8088 259.973C53.5163 259.971 53.2209 259.965 52.9174 259.962C52.2038 259.908 52.2038 259.908 51.9303 259.634C51.8948 259.139 51.8811 258.642 51.8784 258.147C51.8756 257.876 51.8702 257.605 51.8674 257.326C51.9768 256.11 52.562 255.995 53.6557 255.976Z" fill="#37A048"/>
<path d="M178.258 256.625C178.348 256.625 178.438 256.625 178.531 256.625C178.583 256.877 178.638 257.128 178.692 257.385C179.149 259.559 179.149 259.559 179.677 261.716C179.898 262.641 179.898 262.641 179.898 263.734C178.816 263.734 177.733 263.734 176.617 263.734C176.253 263.007 176.409 262.69 176.598 261.908C176.658 261.654 176.718 261.399 176.778 261.139C176.844 260.871 176.91 260.606 176.975 260.333C177.038 260.07 177.098 259.805 177.164 259.532C177.64 257.552 177.64 257.552 178.258 256.625Z" fill="#37A048"/>
<path d="M184.273 291.283C184.465 291.275 184.656 291.27 184.853 291.261C185.023 291.291 185.192 291.321 185.367 291.352C185.914 292.172 185.914 292.172 185.862 292.719C185.591 293.383 185.403 293.659 184.82 294.086C184.189 294.288 183.552 294.474 182.906 294.633C182.816 293.64 182.726 292.648 182.633 291.625C183.237 291.321 183.604 291.297 184.273 291.283Z" fill="#37A048"/>
<path d="M124.391 289.711C124.661 289.982 124.932 290.252 125.211 290.531C123.603 292.62 123.603 292.62 122.392 293.009C121.656 292.992 121.656 292.992 121.109 292.719C121.076 291.967 121.076 291.967 121.383 291.078C122.072 290.695 122.755 290.444 123.502 290.192C124.101 290.039 124.101 290.039 124.391 289.711Z" fill="#000100"/>
</svg>
